<?xml version="1.0" encoding="utf-8"?>
<!-- Generator: Adobe Illustrator 18.1.0, SVG Export Plug-In . SVG Version: 6.00 Build 0)  -->
<!DOCTYPE svg PUBLIC "-//W3C//DTD SVG 1.1//EN" "http://www.w3.org/Graphics/SVG/1.1/DTD/svg11.dtd">
<svg version="1.1" id="Layer_1" xmlns="http://www.w3.org/2000/svg" xmlns:xlink="http://www.w3.org/1999/xlink" x="0px" y="0px"
	 viewBox="0 421.6 1000 156.9" enable-background="new 0 421.6 1000 156.9" xml:space="preserve">
<path fill="#5DBC33" d="M981.1,421.6H188.7l0,0H18.9C8.5,421.6,0,430.4,0,441.2v117.6c0,10.8,8.5,19.6,18.9,19.6h169.8l0,0h792.5
	c10.4,0,18.9-8.8,18.9-19.6V441.2C1000,430.4,991.5,421.6,981.1,421.6z"/>
<path fill="#FFFFFF" d="M49,478.3c0-3.6,2.6-8.1,5.7-9.9l37.5-21.7c3.2-1.8,8.3-1.8,11.5,0l37.5,21.7c3.2,1.8,5.7,6.3,5.7,9.9v43.3
	c0,3.6-2.6,8.1-5.7,9.9l-37.5,21.7c-3.2,1.8-8.3,1.8-11.5,0l-37.5-21.7c-3.2-1.8-5.7-6.3-5.7-9.9V478.3z"/>
<path fill="#5DBC33" d="M113.7,523.3l-3.1-6.3H85.5l-3.1,6.3h-15L92,473c1.4-2.8,3.5-4.1,6-4.1c2.5,0,4.7,1.5,6,4l24.6,50.3H113.7z
	 M104.8,505.1L98,491.2l-6.7,13.9H104.8z"/>
<path fill="#DEF0D6" d="M118.2,517.1L98,476.2v11.3l11.5,23.6H80.9L98,476.2v-5.6c-2.2,0.2-3.4,1.3-4.5,3.2l-23.4,47.8h11.2
	l-3.4-4.4l3-6.2l3.5,4.4h27.2l3.1,6.2H126L118.2,517.1z"/>
<path fill="#FFFFFF" d="M322.5,516.8L322.5,516.8c-1,0-2-0.4-2.7-1.1l-12.3-12.9l5.3-5.1l9.6,10.1l23.2-24.2l5.3,5.1l-25.8,27
	C324.5,516.4,323.5,516.8,322.5,516.8z M429.7,486.8c-1.5-2-3.3-3.4-5.4-4.4c-2.1-1-4.4-1.5-6.7-1.5c-2.7,0-5.2,0.6-7.4,1.6
	c-2.3,1.1-4.2,2.6-5.9,4.4c-1.6,1.9-2.9,4-3.8,6.5c-0.9,2.4-1.4,5-1.4,7.6c0,2.8,0.5,5.5,1.4,7.9c0.9,2.4,2.2,4.6,3.8,6.4
	c1.6,1.8,3.6,3.2,5.8,4.3s4.8,1.6,7.5,1.6c3,0,5.6-0.6,8-1.8c2.3-1.2,4.4-2.8,6.1-5l4.3,3.6c-2.2,2.9-4.8,5.1-7.9,6.5
	c-3.1,1.4-6.6,2.1-10.5,2.1c-3.5,0-6.7-0.6-9.7-1.9c-3-1.3-5.6-3.1-7.9-5.3c-2.2-2.3-4-5-5.2-8.1c-1.3-3.1-1.9-6.5-1.9-10.2
	c0-3.6,0.6-6.9,1.8-10c1.2-3.1,2.9-5.8,5.1-8.1c2.2-2.3,4.8-4.1,7.8-5.4c3-1.3,6.3-2,10-2c3.3,0,6.5,0.6,9.5,1.8
	c3,1.2,5.6,3.1,7.7,5.8L429.7,486.8z M440.3,509.3c0-2.5,0.4-4.8,1.3-6.9c0.9-2.1,2.1-3.8,3.6-5.3c1.5-1.5,3.3-2.6,5.4-3.5
	c2.1-0.8,4.4-1.2,6.9-1.2c2.5,0,4.8,0.4,6.9,1.2c2.1,0.8,3.9,2,5.4,3.5c1.5,1.5,2.7,3.3,3.6,5.3c0.9,2.1,1.3,4.3,1.3,6.9
	c0,2.5-0.4,4.8-1.3,6.9c-0.9,2.1-2.1,3.8-3.6,5.3c-1.5,1.5-3.3,2.6-5.4,3.5c-2.1,0.8-4.4,1.2-6.9,1.2c-2.5,0-4.8-0.4-6.9-1.2
	c-2.1-0.8-3.9-2-5.4-3.5c-1.5-1.5-2.7-3.3-3.6-5.3C440.7,514.1,440.3,511.8,440.3,509.3z M446.1,509.3c0,1.7,0.3,3.3,0.8,4.7
	s1.3,2.7,2.3,3.8c1,1.1,2.2,1.9,3.6,2.5c1.4,0.6,3,0.9,4.7,0.9c1.7,0,3.3-0.3,4.7-0.9c1.4-0.6,2.6-1.5,3.6-2.5
	c1-1.1,1.8-2.3,2.3-3.8s0.8-3,0.8-4.7c0-1.7-0.3-3.3-0.8-4.7c-0.5-1.4-1.3-2.7-2.3-3.8c-1-1.1-2.2-1.9-3.6-2.5
	c-1.4-0.6-3-0.9-4.7-0.9c-1.7,0-3.3,0.3-4.7,0.9c-1.4,0.6-2.6,1.5-3.6,2.5c-1,1.1-1.8,2.3-2.3,3.8
	C446.3,506,446.1,507.6,446.1,509.3z M482.9,500.8c0-1.5,0-2.8-0.1-4.1c-0.1-1.3-0.1-2.4-0.1-3.5h5.1c0,0.9,0,1.7,0.1,2.6
	c0,0.9,0.1,1.8,0.1,2.7h0.1c0.4-0.8,0.9-1.5,1.5-2.3c0.7-0.7,1.5-1.4,2.4-2c0.9-0.6,1.9-1,3.1-1.4c1.1-0.3,2.4-0.5,3.7-0.5
	c2.1,0,3.9,0.3,5.5,1c1.5,0.6,2.8,1.5,3.8,2.7c1,1.1,1.8,2.5,2.2,4.2c0.5,1.6,0.7,3.4,0.7,5.3v19.8h-5.4V506c0-2.7-0.6-4.8-1.8-6.4
	c-1.2-1.6-3-2.3-5.6-2.3c-1.7,0-3.2,0.3-4.5,0.9c-1.3,0.6-2.3,1.4-3.1,2.5c-0.8,1.1-1.4,2.4-1.8,3.9c-0.4,1.5-0.6,3.2-0.6,5v15.6
	h-5.4V500.8z M521.1,500.8c0-1.5,0-2.8-0.1-4.1s-0.1-2.4-0.1-3.5h5.1c0,0.9,0,1.7,0.1,2.6c0,0.9,0.1,1.8,0.1,2.7h0.1
	c0.4-0.8,0.9-1.5,1.5-2.3c0.7-0.7,1.5-1.4,2.4-2c0.9-0.6,1.9-1,3.1-1.4c1.1-0.3,2.4-0.5,3.7-0.5c2.1,0,3.9,0.3,5.5,1
	c1.5,0.6,2.8,1.5,3.8,2.7c1,1.1,1.7,2.5,2.2,4.2c0.5,1.6,0.7,3.4,0.7,5.3v19.8h-5.4V506c0-2.7-0.6-4.8-1.8-6.4
	c-1.2-1.6-3-2.3-5.6-2.3c-1.7,0-3.2,0.3-4.5,0.9c-1.3,0.6-2.3,1.4-3.1,2.5c-0.8,1.1-1.4,2.4-1.8,3.9c-0.4,1.5-0.6,3.2-0.6,5v15.6
	h-5.4V500.8z M587.9,519.5c-1.9,2.5-4,4.2-6.3,5.2c-2.3,1-4.9,1.5-8,1.5c-2.5,0-4.8-0.4-6.8-1.3c-2-0.9-3.7-2.1-5.1-3.6
	c-1.4-1.5-2.5-3.3-3.2-5.4c-0.8-2.1-1.1-4.3-1.1-6.6c0-2.5,0.4-4.7,1.2-6.8c0.8-2.1,2-3.9,3.4-5.4c1.5-1.5,3.2-2.6,5.2-3.5
	c2-0.8,4.2-1.2,6.6-1.2c2.2,0,4.3,0.4,6.2,1.1c1.9,0.8,3.5,1.9,4.8,3.3c1.3,1.4,2.4,3.2,3.1,5.3c0.7,2.1,1.1,4.5,1.1,7.1v1.7h-25.9
	c0.1,1.4,0.4,2.7,1,3.9c0.6,1.3,1.3,2.4,2.2,3.3c0.9,0.9,2,1.7,3.2,2.2c1.2,0.5,2.6,0.8,4,0.8c2.3,0,4.3-0.4,5.9-1.2
	c1.6-0.8,3-2,4.3-3.6L587.9,519.5z M583.3,506.4c-0.1-2.7-1-4.9-2.7-6.6c-1.7-1.6-4-2.5-7-2.5c-3,0-5.4,0.8-7.2,2.5
	c-1.8,1.6-2.9,3.8-3.3,6.6H583.3z M620.2,501.2c-1.1-1.4-2.4-2.4-3.7-3c-1.3-0.6-2.8-0.9-4.4-0.9c-1.8,0-3.4,0.3-4.7,0.9
	c-1.4,0.6-2.5,1.5-3.4,2.6c-0.9,1.1-1.6,2.4-2,3.8c-0.5,1.4-0.7,3-0.7,4.6s0.3,3.2,0.8,4.6c0.5,1.4,1.3,2.7,2.2,3.8
	c0.9,1.1,2.1,2,3.4,2.6c1.3,0.6,2.8,0.9,4.5,0.9c3.5,0,6.2-1.3,8.2-4l4,3.8c-1.6,1.8-3.4,3.1-5.5,3.9c-2.1,0.8-4.3,1.2-6.7,1.2
	c-2.5,0-4.7-0.4-6.8-1.2c-2.1-0.8-3.8-2-5.3-3.5c-1.4-1.5-2.6-3.3-3.4-5.4c-0.8-2.1-1.2-4.3-1.2-6.8c0-2.4,0.4-4.7,1.2-6.7
	c0.8-2.1,1.9-3.8,3.4-5.4c1.5-1.5,3.2-2.7,5.2-3.5c2-0.8,4.3-1.3,6.8-1.3c2.4,0,4.6,0.4,6.8,1.2c2.1,0.8,4,2.1,5.6,3.8L620.2,501.2z
	 M648,497.7h-9.5v16.1c0,1.1,0,2,0.1,2.9c0,0.9,0.2,1.7,0.6,2.3c0.3,0.7,0.8,1.2,1.4,1.6c0.6,0.4,1.6,0.6,2.7,0.6
	c0.8,0,1.6-0.1,2.4-0.3c0.8-0.2,1.6-0.5,2.3-0.8l0.2,4.9c-0.9,0.4-1.9,0.7-3,0.9c-1.1,0.2-2.2,0.3-3.2,0.3c-1.9,0-3.5-0.3-4.6-0.8
	c-1.1-0.5-2-1.2-2.7-2.1c-0.6-0.9-1.1-2-1.3-3.4c-0.2-1.3-0.3-2.8-0.3-4.5v-17.6h-7v-4.5h7v-9.1h5.4v9.1h9.5V497.7z M683.3,519.5
	c-1.9,2.5-4,4.2-6.3,5.2c-2.3,1-4.9,1.5-8,1.5c-2.5,0-4.8-0.4-6.8-1.3c-2-0.9-3.7-2.1-5.1-3.6c-1.4-1.5-2.5-3.3-3.2-5.4
	c-0.8-2.1-1.1-4.3-1.1-6.6c0-2.5,0.4-4.7,1.2-6.8c0.8-2.1,2-3.9,3.4-5.4c1.5-1.5,3.2-2.6,5.2-3.5c2-0.8,4.2-1.2,6.6-1.2
	c2.2,0,4.3,0.4,6.2,1.1c1.9,0.8,3.5,1.9,4.8,3.3c1.3,1.4,2.4,3.2,3.1,5.3c0.7,2.1,1.1,4.5,1.1,7.1v1.7h-25.9c0.1,1.4,0.4,2.7,1,3.9
	c0.6,1.3,1.3,2.4,2.2,3.3c0.9,0.9,2,1.7,3.2,2.2c1.2,0.5,2.6,0.8,4,0.8c2.3,0,4.3-0.4,5.9-1.2c1.6-0.8,3-2,4.3-3.6L683.3,519.5z
	 M678.7,506.4c-0.1-2.7-1-4.9-2.7-6.6c-1.7-1.6-4-2.5-7-2.5c-3,0-5.4,0.8-7.2,2.5c-1.8,1.6-2.9,3.8-3.3,6.6H678.7z M719.5,519.6
	h-0.1c-1,1.8-2.6,3.4-4.8,4.6c-2.2,1.3-4.7,1.9-7.6,1.9c-2.2,0-4.3-0.4-6.3-1.3c-2-0.8-3.7-2-5.1-3.5c-1.4-1.5-2.6-3.3-3.4-5.4
	c-0.8-2.1-1.2-4.3-1.2-6.7c0-2.4,0.4-4.7,1.2-6.7c0.8-2.1,2-3.8,3.4-5.4c1.5-1.5,3.2-2.7,5.3-3.5c2.1-0.8,4.4-1.3,6.9-1.3
	c2.3,0,4.5,0.5,6.4,1.4c1.9,1,3.6,2.3,5.1,4h0.1v-24.4h5.4v51.9h-5.4V519.6z M719.5,509.3c0-1.7-0.3-3.3-0.8-4.7
	c-0.5-1.4-1.3-2.7-2.3-3.8c-1-1.1-2.2-1.9-3.6-2.5c-1.4-0.6-3-0.9-4.7-0.9c-1.7,0-3.3,0.3-4.7,0.9c-1.4,0.6-2.6,1.5-3.6,2.5
	s-1.8,2.3-2.3,3.8c-0.5,1.4-0.8,3-0.8,4.7c0,1.7,0.3,3.3,0.8,4.7c0.5,1.4,1.3,2.7,2.3,3.8s2.2,1.9,3.6,2.5c1.4,0.6,3,0.9,4.7,0.9
	c1.7,0,3.3-0.3,4.7-0.9c1.4-0.6,2.6-1.5,3.6-2.5c1-1.1,1.8-2.3,2.3-3.8C719.2,512.5,719.5,511,719.5,509.3z"/>
</svg>
