<?xml version="1.0" encoding="utf-8"?>
<!-- Generator: Adobe Illustrator 18.1.0, SVG Export Plug-In . SVG Version: 6.00 Build 0)  -->
<!DOCTYPE svg PUBLIC "-//W3C//DTD SVG 1.1//EN" "http://www.w3.org/Graphics/SVG/1.1/DTD/svg11.dtd">
<svg version="1.1" id="Layer_1" xmlns="http://www.w3.org/2000/svg" xmlns:xlink="http://www.w3.org/1999/xlink" x="0px" y="0px"
	 viewBox="0 419.5 1000 160.9" enable-background="new 0 419.5 1000 160.9" xml:space="preserve">
<path fill="#5DBC33" d="M978,419.5H197.8l0,0H22c-12.1,0-22,10.3-22,23v114.9c0,12.6,9.9,23,22,23h175.8l0,0H978
	c12.1,0,22-10.3,22-23V442.5C1000,429.9,990.1,419.5,978,419.5z"/>
<path fill="#FFFFFF" d="M319.4,520.1L319.4,520.1c-1.2,0-2.3-0.5-3.1-1.3l-14.4-15.2l6.3-5.9l11.3,11.9l27.1-28.4l6.2,6l-30.3,31.7
	C321.8,519.7,320.6,520.1,319.4,520.1z M436.3,485.6c-1.5-2-3.3-3.5-5.4-4.4c-2.2-1-4.4-1.5-6.8-1.5c-2.7,0-5.2,0.6-7.5,1.7
	c-2.3,1.1-4.2,2.6-5.9,4.5c-1.7,1.9-2.9,4-3.9,6.5c-0.9,2.5-1.4,5-1.4,7.7c0,2.9,0.5,5.5,1.4,8c0.9,2.5,2.2,4.6,3.8,6.4
	c1.6,1.8,3.6,3.3,5.9,4.3c2.3,1.1,4.8,1.6,7.6,1.6c3,0,5.7-0.6,8-1.8c2.3-1.2,4.4-2.9,6.1-5.1l4.3,3.7c-2.2,2.9-4.9,5.1-8,6.5
	c-3.1,1.4-6.6,2.1-10.5,2.1c-3.5,0-6.8-0.6-9.8-1.9c-3-1.3-5.7-3.1-7.9-5.3c-2.2-2.3-4-5-5.2-8.1c-1.3-3.1-1.9-6.5-1.9-10.3
	c0-3.6,0.6-6.9,1.8-10.1c1.2-3.1,2.9-5.8,5.1-8.1c2.2-2.3,4.8-4.1,7.9-5.4c3-1.3,6.4-2,10-2c3.3,0,6.5,0.6,9.6,1.8
	c3.1,1.2,5.6,3.2,7.7,5.9L436.3,485.6z M447,508.3c0-2.5,0.4-4.8,1.3-6.9c0.9-2.1,2.1-3.9,3.6-5.3c1.5-1.5,3.3-2.7,5.4-3.5
	c2.1-0.8,4.4-1.2,6.9-1.2c2.5,0,4.8,0.4,6.9,1.2c2.1,0.8,3.9,2,5.4,3.5c1.5,1.5,2.7,3.3,3.6,5.3c0.9,2.1,1.3,4.4,1.3,6.9
	c0,2.5-0.4,4.8-1.3,6.9c-0.9,2.1-2.1,3.9-3.6,5.3s-3.3,2.7-5.4,3.5c-2.1,0.8-4.4,1.2-6.9,1.2c-2.5,0-4.8-0.4-6.9-1.2
	c-2.1-0.8-3.9-2-5.4-3.5c-1.5-1.5-2.7-3.3-3.6-5.3C447.4,513.1,447,510.8,447,508.3z M452.8,508.3c0,1.7,0.3,3.3,0.8,4.7
	c0.5,1.4,1.3,2.7,2.3,3.8c1,1.1,2.2,1.9,3.6,2.6c1.4,0.6,3,0.9,4.7,0.9c1.8,0,3.3-0.3,4.7-0.9c1.4-0.6,2.6-1.5,3.6-2.6
	c1-1.1,1.8-2.3,2.3-3.8c0.5-1.4,0.8-3,0.8-4.7s-0.3-3.3-0.8-4.7c-0.5-1.4-1.3-2.7-2.3-3.8c-1-1.1-2.2-1.9-3.6-2.6
	c-1.4-0.6-3-0.9-4.7-0.9c-1.7,0-3.3,0.3-4.7,0.9c-1.4,0.6-2.6,1.5-3.6,2.6c-1,1.1-1.8,2.3-2.3,3.8C453,505,452.8,506.6,452.8,508.3z
	 M489.8,499.8c0-1.5,0-2.9-0.1-4.1c-0.1-1.3-0.1-2.5-0.1-3.5h5.1c0,0.9,0,1.8,0.1,2.6c0,0.9,0.1,1.8,0.1,2.7h0.1
	c0.4-0.8,0.9-1.5,1.6-2.3s1.5-1.4,2.4-2c0.9-0.6,2-1,3.1-1.4c1.1-0.3,2.4-0.5,3.7-0.5c2.1,0,3.9,0.3,5.5,1c1.5,0.6,2.8,1.5,3.8,2.7
	c1,1.2,1.8,2.5,2.2,4.2c0.5,1.6,0.7,3.4,0.7,5.3v19.9h-5.4V505c0-2.7-0.6-4.8-1.8-6.4c-1.2-1.6-3.1-2.3-5.6-2.3
	c-1.7,0-3.2,0.3-4.5,0.9c-1.3,0.6-2.3,1.4-3.1,2.6c-0.8,1.1-1.4,2.4-1.8,3.9c-0.4,1.5-0.6,3.2-0.6,5v15.7h-5.4V499.8z M528.2,499.8
	c0-1.5-0.1-2.9-0.1-4.1c-0.1-1.3-0.1-2.5-0.1-3.5h5.1c0,0.9,0,1.8,0.1,2.6c0,0.9,0.1,1.8,0.1,2.7h0.1c0.4-0.8,0.9-1.5,1.5-2.3
	c0.7-0.7,1.5-1.4,2.4-2c0.9-0.6,2-1,3.1-1.4c1.2-0.3,2.4-0.5,3.7-0.5c2.1,0,3.9,0.3,5.5,1c1.5,0.6,2.8,1.5,3.8,2.7
	c1,1.2,1.8,2.5,2.2,4.2c0.5,1.6,0.7,3.4,0.7,5.3v19.9h-5.4V505c0-2.7-0.6-4.8-1.8-6.4c-1.2-1.6-3.1-2.3-5.6-2.3
	c-1.8,0-3.3,0.3-4.5,0.9c-1.3,0.6-2.3,1.4-3.1,2.6c-0.8,1.1-1.4,2.4-1.8,3.9c-0.4,1.5-0.6,3.2-0.6,5v15.7h-5.4V499.8z M595.3,518.5
	c-1.9,2.5-4,4.2-6.3,5.2c-2.3,1-5,1.5-8,1.5c-2.5,0-4.8-0.4-6.8-1.3c-2-0.9-3.7-2.1-5.1-3.6c-1.4-1.5-2.5-3.3-3.2-5.4
	c-0.8-2.1-1.1-4.3-1.1-6.6c0-2.5,0.4-4.8,1.2-6.9c0.8-2.1,2-3.9,3.4-5.4c1.5-1.5,3.2-2.7,5.2-3.5c2-0.8,4.2-1.2,6.6-1.2
	c2.3,0,4.3,0.4,6.2,1.1c1.9,0.8,3.5,1.9,4.9,3.3s2.4,3.2,3.1,5.3c0.7,2.1,1.1,4.5,1.1,7.1v1.7h-26.1c0.1,1.4,0.4,2.7,1,4
	c0.6,1.3,1.3,2.4,2.2,3.3c0.9,0.9,2,1.7,3.2,2.2c1.2,0.6,2.6,0.8,4.1,0.8c2.3,0,4.3-0.4,5.9-1.2c1.6-0.8,3.1-2,4.3-3.7L595.3,518.5z
	 M590.7,505.4c-0.1-2.8-1-5-2.7-6.6s-4-2.5-7-2.5c-3,0-5.4,0.8-7.2,2.5c-1.8,1.7-2.9,3.9-3.3,6.6H590.7z M627.8,500.2
	c-1.1-1.4-2.4-2.4-3.7-3c-1.3-0.6-2.8-0.9-4.4-0.9c-1.8,0-3.4,0.3-4.8,0.9c-1.4,0.6-2.5,1.5-3.4,2.6c-0.9,1.1-1.6,2.4-2,3.8
	c-0.5,1.4-0.7,3-0.7,4.7s0.3,3.2,0.8,4.7c0.5,1.4,1.3,2.7,2.2,3.8c0.9,1.1,2.1,2,3.4,2.6c1.3,0.6,2.8,0.9,4.5,0.9
	c3.5,0,6.3-1.3,8.2-4l4,3.8c-1.6,1.8-3.4,3.1-5.5,3.9c-2.1,0.8-4.3,1.2-6.7,1.2c-2.5,0-4.8-0.4-6.8-1.2c-2.1-0.8-3.8-2-5.3-3.5
	c-1.4-1.5-2.6-3.3-3.4-5.4c-0.8-2.1-1.2-4.3-1.2-6.8c0-2.4,0.4-4.7,1.2-6.8c0.8-2.1,1.9-3.9,3.4-5.4s3.2-2.7,5.3-3.6
	c2-0.8,4.3-1.3,6.8-1.3c2.4,0,4.7,0.4,6.8,1.2c2.1,0.8,4,2.1,5.6,3.9L627.8,500.2z M655.7,496.7h-9.5v16.1c0,1.1,0,2,0.1,2.9
	c0,0.9,0.2,1.7,0.5,2.3c0.3,0.7,0.8,1.2,1.4,1.6c0.6,0.4,1.6,0.6,2.8,0.6c0.8,0,1.6-0.1,2.4-0.3c0.8-0.2,1.6-0.5,2.3-0.8l0.2,4.9
	c-0.9,0.4-1.9,0.7-3.1,0.9c-1.1,0.2-2.2,0.3-3.2,0.3c-1.9,0-3.5-0.3-4.6-0.8c-1.2-0.5-2-1.2-2.7-2.1c-0.6-0.9-1.1-2.1-1.3-3.4
	c-0.2-1.4-0.3-2.9-0.3-4.5v-17.7h-7v-4.6h7v-9.2h5.4v9.2h9.5V496.7z M691.2,518.5c-1.9,2.5-4,4.2-6.3,5.2c-2.3,1-5,1.5-8,1.5
	c-2.5,0-4.8-0.4-6.8-1.3c-2-0.9-3.7-2.1-5.1-3.6c-1.4-1.5-2.5-3.3-3.2-5.4c-0.8-2.1-1.1-4.3-1.1-6.6c0-2.5,0.4-4.8,1.2-6.9
	c0.8-2.1,2-3.9,3.4-5.4c1.5-1.5,3.2-2.7,5.2-3.5c2-0.8,4.2-1.2,6.6-1.2c2.3,0,4.3,0.4,6.2,1.1c1.9,0.8,3.5,1.9,4.9,3.3
	s2.4,3.2,3.1,5.3c0.7,2.1,1.1,4.5,1.1,7.1v1.7h-26.1c0.1,1.4,0.4,2.7,1,4c0.6,1.3,1.3,2.4,2.2,3.3c0.9,0.9,2,1.7,3.2,2.2
	c1.2,0.6,2.6,0.8,4.1,0.8c2.3,0,4.3-0.4,5.9-1.2c1.6-0.8,3.1-2,4.3-3.7L691.2,518.5z M686.6,505.4c-0.1-2.8-1-5-2.7-6.6
	s-4-2.5-7-2.5c-3,0-5.4,0.8-7.2,2.5c-1.8,1.7-2.9,3.9-3.3,6.6H686.6z M727.5,518.7h-0.1c-1,1.8-2.6,3.4-4.8,4.7
	c-2.2,1.3-4.7,1.9-7.6,1.9c-2.3,0-4.4-0.4-6.3-1.3c-2-0.8-3.7-2-5.1-3.6c-1.4-1.5-2.6-3.3-3.4-5.4c-0.8-2.1-1.2-4.3-1.2-6.8
	c0-2.4,0.4-4.7,1.2-6.8c0.8-2.1,2-3.9,3.4-5.4s3.3-2.7,5.3-3.6c2.1-0.8,4.4-1.3,6.9-1.3c2.3,0,4.5,0.5,6.4,1.4c2,1,3.7,2.3,5.1,4.1
	h0.1v-24.6h5.4v52.1h-5.4V518.7z M727.5,508.3c0-1.7-0.3-3.3-0.8-4.7c-0.5-1.4-1.3-2.7-2.3-3.8c-1-1.1-2.2-1.9-3.6-2.6
	c-1.4-0.6-3-0.9-4.7-0.9c-1.8,0-3.3,0.3-4.7,0.9c-1.4,0.6-2.6,1.5-3.6,2.6c-1,1.1-1.8,2.3-2.3,3.8c-0.5,1.4-0.8,3-0.8,4.7
	s0.3,3.3,0.8,4.7c0.5,1.4,1.3,2.7,2.3,3.8c1,1.1,2.2,1.9,3.6,2.6c1.4,0.6,3,0.9,4.7,0.9c1.7,0,3.3-0.3,4.7-0.9
	c1.4-0.6,2.6-1.5,3.6-2.6c1-1.1,1.8-2.3,2.3-3.8C727.3,511.5,727.5,510,727.5,508.3z"/>
<path fill="#FFFFFF" d="M51.7,477.1c0-3.8,2.7-8.6,6.1-10.5l39.6-22.9c3.3-1.9,8.8-1.9,12.1,0l39.6,22.9c3.3,1.9,6.1,6.6,6.1,10.5
	v45.7c0,3.8-2.7,8.6-6.1,10.5l-39.6,22.9c-3.3,1.9-8.8,1.9-12.1,0l-39.6-22.9c-3.3-1.9-6.1-6.6-6.1-10.5V477.1z"/>
<path fill="#5DBC33" d="M119.9,524.6l-3.3-6.7H90.2l-3.2,6.7H71.2l26-53c1.5-2.9,3.7-4.3,6.3-4.3c2.6,0,5,1.6,6.3,4.3l26,53.1H119.9
	z M110.5,505.4l-7.1-14.7l-7.1,14.7H110.5z"/>
<path fill="#DEF0D6" d="M124.7,518.1l-21.3-43.2v11.9l12.1,24.9H85.3l18.1-36.8v-5.9c-2.3,0.2-3.6,1.4-4.8,3.4L74,522.8h11.8
	l-3.6-4.6l3.1-6.5l3.7,4.6h28.7l3.2,6.5h11.9L124.7,518.1z"/>
</svg>
