<?xml version="1.0" encoding="utf-8"?>
<!-- Generator: Adobe Illustrator 18.1.0, SVG Export Plug-In . SVG Version: 6.00 Build 0)  -->
<!DOCTYPE svg PUBLIC "-//W3C//DTD SVG 1.1//EN" "http://www.w3.org/Graphics/SVG/1.1/DTD/svg11.dtd">
<svg version="1.1" id="Layer_1" xmlns="http://www.w3.org/2000/svg" xmlns:xlink="http://www.w3.org/1999/xlink" x="0px" y="0px"
	 viewBox="0 419.5 1000 160.9" enable-background="new 0 419.5 1000 160.9" xml:space="preserve">
<path fill="#52B6ED" d="M978,419.5H197.8H22c-12.1,0-22,10.3-22,23v114.9c0,12.6,9.9,23,22,23h175.8H978c12.1,0,22-10.3,22-23V442.5
	C1000,429.9,990.1,419.5,978,419.5z"/>
<path fill="#FFFFFF" d="M51.7,477.1c0-3.8,2.7-8.6,6.1-10.5l39.6-22.9c3.3-1.9,8.8-1.9,12.1,0l39.6,22.9c3.3,1.9,6.1,6.6,6.1,10.5
	v45.7c0,3.8-2.7,8.6-6.1,10.5l-39.6,22.9c-3.3,1.9-8.8,1.9-12.1,0l-39.6-22.9c-3.3-1.9-6.1-6.6-6.1-10.5V477.1z"/>
<path fill="#52B6ED" d="M119.9,524.6l-3.3-6.7H90.2l-3.2,6.7H71.2l26-53c1.5-2.9,3.7-4.3,6.3-4.3c2.6,0,5,1.6,6.3,4.3l26,53.1H119.9
	z M110.5,505.4l-7.1-14.7l-7.1,14.7H110.5z"/>
<path fill="#83CAF1" d="M124.7,518.1l-21.3-43.2v11.9l12.1,24.9H85.3l18.1-36.8v-5.9c-2.3,0.2-3.6,1.4-4.8,3.4L74,522.8h11.8
	l-3.6-4.6l3.1-6.5l3.7,4.6h28.7l3.2,6.5h11.9L124.7,518.1z"/>
<path fill="#FFFFFF" d="M257.5,518.4c-1.9,2.6-4.4,4.7-7.5,6.4c-3.1,1.6-6.8,2.4-11.1,2.4c-3.7,0-7.2-0.6-10.3-1.9
	c-3.1-1.3-5.9-3-8.1-5.3c-2.3-2.3-4.1-5-5.3-8.1c-1.3-3.1-1.9-6.6-1.9-10.4c0-3.8,0.7-7.3,2-10.5c1.3-3.1,3.1-5.8,5.5-8.1
	c2.3-2.2,5.1-4,8.2-5.2c3.2-1.2,6.6-1.9,10.3-1.9c1.7,0,3.3,0.2,5,0.5c1.7,0.3,3.3,0.8,4.9,1.4c1.6,0.6,3,1.4,4.3,2.4
	c1.3,0.9,2.4,2,3.3,3.3l-5.4,4.1c-1.2-1.7-2.9-3-5.1-4.1c-2.2-1.1-4.5-1.6-7.1-1.6c-2.9,0-5.4,0.5-7.7,1.5c-2.3,1-4.2,2.5-5.8,4.2
	c-1.6,1.8-2.9,3.9-3.7,6.2c-0.9,2.4-1.3,4.9-1.3,7.6c0,2.8,0.4,5.3,1.3,7.7c0.8,2.4,2.1,4.5,3.7,6.2c1.6,1.8,3.5,3.2,5.8,4.2
	c2.3,1,4.8,1.5,7.6,1.5c2.8,0,5.3-0.5,7.5-1.7c2.3-1.1,4.1-2.7,5.6-4.8L257.5,518.4z M296,509.5c0,2.5-0.4,4.9-1.3,7
	c-0.9,2.1-2.1,3.9-3.7,5.5c-1.6,1.5-3.5,2.7-5.6,3.6c-2.2,0.9-4.5,1.3-7,1.3c-2.5,0-4.8-0.4-7-1.3c-2.2-0.8-4-2-5.6-3.6
	c-1.6-1.5-2.8-3.4-3.7-5.5c-0.9-2.1-1.3-4.4-1.3-7c0-2.5,0.4-4.8,1.3-6.9c0.9-2.1,2.1-3.9,3.7-5.4c1.6-1.5,3.4-2.7,5.6-3.6
	c2.2-0.8,4.5-1.3,7-1.3c2.5,0,4.8,0.4,7,1.3c2.2,0.9,4,2,5.6,3.6c1.6,1.5,2.8,3.3,3.7,5.4C295.5,504.7,296,507,296,509.5z
	 M289.2,509.6c0-1.6-0.2-3.1-0.7-4.5c-0.5-1.4-1.2-2.7-2.1-3.7c-0.9-1.1-2.1-1.9-3.4-2.6c-1.4-0.6-2.9-1-4.7-1c-1.8,0-3.3,0.3-4.7,1
	c-1.4,0.6-2.5,1.5-3.4,2.6c-0.9,1.1-1.6,2.3-2.1,3.7s-0.7,2.9-0.7,4.5c0,1.6,0.2,3,0.7,4.5c0.5,1.4,1.2,2.7,2.1,3.8s2.1,2,3.4,2.6
	c1.4,0.6,2.9,1,4.7,1c1.8,0,3.3-0.3,4.7-1c1.4-0.6,2.5-1.5,3.4-2.6s1.6-2.4,2.1-3.8C289,512.6,289.2,511.1,289.2,509.6z
	 M309.7,493.2c0.1,0.8,0.2,1.8,0.2,2.8c0,1,0.1,1.9,0.1,2.6h0.2c0.4-0.9,1-1.7,1.7-2.4c0.7-0.8,1.5-1.4,2.4-2c0.9-0.6,1.9-1,3-1.3
	c1.1-0.3,2.2-0.5,3.4-0.5c2.1,0,3.9,0.4,5.4,1.1c1.5,0.7,2.8,1.7,3.8,2.9c1,1.2,1.8,2.6,2.2,4.2c0.5,1.6,0.7,3.3,0.7,5.2v20.3h-6.5
	v-18.1c0-1.3-0.1-2.6-0.3-3.8c-0.2-1.2-0.6-2.3-1.1-3.2c-0.6-0.9-1.3-1.7-2.3-2.2s-2.2-0.8-3.7-0.8c-2.6,0-4.7,1-6.3,2.9
	c-1.6,2-2.4,4.6-2.4,7.8v17.4h-6.5v-25.7c0-0.9,0-2-0.1-3.4c0-1.4-0.1-2.6-0.2-3.7H309.7z M348.6,493.2c0.1,0.8,0.2,1.8,0.2,2.8
	c0,1,0.1,1.9,0.1,2.6h0.2c0.4-0.9,1-1.7,1.7-2.4c0.7-0.8,1.5-1.4,2.4-2c0.9-0.6,1.9-1,3-1.3c1.1-0.3,2.3-0.5,3.4-0.5
	c2.1,0,3.9,0.4,5.4,1.1c1.5,0.7,2.8,1.7,3.8,2.9c1,1.2,1.8,2.6,2.2,4.2c0.5,1.6,0.7,3.3,0.7,5.2v20.3h-6.5v-18.1
	c0-1.3-0.1-2.6-0.3-3.8c-0.2-1.2-0.6-2.3-1.1-3.2s-1.3-1.7-2.3-2.2s-2.2-0.8-3.7-0.8c-2.6,0-4.7,1-6.3,2.9c-1.6,2-2.4,4.6-2.4,7.8
	v17.4h-6.5v-25.7c0-0.9,0-2-0.1-3.4c0-1.4-0.1-2.6-0.2-3.7H348.6z M412.3,509.3c0,0.4,0,0.7,0,1.1c0,0.4,0,0.7-0.1,1.1h-26
	c0,1.4,0.4,2.7,0.9,3.9c0.6,1.2,1.3,2.3,2.3,3.2c1,0.9,2.1,1.6,3.3,2.1c1.3,0.5,2.6,0.8,4,0.8c2.2,0,4.1-0.5,5.7-1.4
	c1.6-1,2.9-2.1,3.8-3.5l4.6,3.7c-1.8,2.3-3.8,4-6.2,5.1s-5,1.6-7.9,1.6c-2.5,0-4.8-0.4-6.9-1.2c-2.1-0.8-3.9-2-5.4-3.5
	c-1.5-1.5-2.7-3.3-3.6-5.4c-0.9-2.1-1.3-4.5-1.3-7c0-2.5,0.4-4.9,1.3-7s2-4,3.6-5.5s3.3-2.7,5.4-3.6c2.1-0.8,4.3-1.3,6.7-1.3
	c2.4,0,4.6,0.4,6.5,1.2c2,0.8,3.6,1.9,5,3.4c1.4,1.5,2.4,3.2,3.1,5.3C411.9,504.3,412.3,506.7,412.3,509.3z M405.7,506.7
	c0-1.3-0.3-2.5-0.7-3.6c-0.4-1.1-1-2.1-1.7-2.9c-0.8-0.8-1.7-1.5-2.8-2c-1.1-0.5-2.4-0.7-4-0.7c-1.4,0-2.7,0.2-3.9,0.7
	s-2.3,1.1-3.2,2c-0.9,0.8-1.6,1.8-2.2,2.9c-0.6,1.1-0.9,2.3-1,3.6H405.7z M443,501.5c-0.7-1.1-1.7-1.9-3.1-2.7
	c-1.4-0.7-2.9-1.1-4.4-1.1c-1.7,0-3.2,0.3-4.5,1c-1.3,0.6-2.4,1.5-3.3,2.6c-0.9,1.1-1.6,2.3-2.1,3.8c-0.5,1.4-0.7,2.9-0.7,4.5
	c0,1.6,0.2,3.1,0.7,4.5c0.5,1.4,1.2,2.7,2.1,3.8c0.9,1.1,2,1.9,3.4,2.6c1.3,0.6,2.8,1,4.5,1c1.7,0,3.2-0.3,4.5-1s2.5-1.5,3.3-2.6
	l4.3,3.9c-1.4,1.6-3.1,2.9-5.2,3.8c-2.1,0.9-4.4,1.3-7,1.3c-2.5,0-4.9-0.4-7-1.2c-2.1-0.8-4-2-5.6-3.5c-1.6-1.5-2.8-3.3-3.7-5.4
	c-0.9-2.1-1.3-4.5-1.3-7.1c0-2.6,0.4-4.9,1.3-7c0.9-2.1,2.1-3.9,3.7-5.4c1.6-1.5,3.4-2.7,5.6-3.5c2.1-0.8,4.5-1.2,6.9-1.2
	c2.3,0,4.6,0.5,6.9,1.4c2.3,0.9,4.1,2.3,5.4,4L443,501.5z M471.8,498.6h-8.7v17c0,2,0.4,3.4,1.1,4.2c0.7,0.8,1.9,1.3,3.5,1.3
	c0.6,0,1.2-0.1,1.9-0.2c0.7-0.1,1.3-0.3,1.9-0.6l0.2,5.3c-0.8,0.3-1.6,0.5-2.6,0.7c-0.9,0.2-1.9,0.2-2.9,0.2c-3.1,0-5.4-0.8-7.1-2.5
	c-1.6-1.7-2.5-4.3-2.5-7.7v-17.7h-6.3v-5.3h6.3v-9.4h6.4v9.4h8.7V498.6z M495.2,493.2l7.4,25h0.1l7.8-25h6.8l7.9,25h0.1l7.4-25h6.8
	l-10.8,32.7H522l-8.1-24.6h-0.1l-8,24.6H499l-10.9-32.7H495.2z M552.5,481.5c0,1.2-0.4,2.2-1.3,3c-0.8,0.8-1.9,1.2-3,1.2
	c-1.2,0-2.2-0.4-3-1.2c-0.8-0.8-1.2-1.8-1.2-2.9c0-1.2,0.4-2.2,1.2-3c0.8-0.8,1.8-1.2,3-1.2c1.2,0,2.2,0.4,3,1.2
	C552.1,479.3,552.5,480.3,552.5,481.5z M551.4,525.9H545v-32.7h6.5V525.9z M577.6,498.6h-8.7v17c0,2,0.4,3.4,1.1,4.2
	c0.7,0.8,1.9,1.3,3.5,1.3c0.6,0,1.2-0.1,1.9-0.2c0.7-0.1,1.3-0.3,1.9-0.6l0.2,5.3c-0.8,0.3-1.6,0.5-2.6,0.7
	c-0.9,0.2-1.9,0.2-2.9,0.2c-3.1,0-5.4-0.8-7.1-2.5c-1.6-1.7-2.5-4.3-2.5-7.7v-17.7h-6.3v-5.3h6.3v-9.4h6.4v9.4h8.7V498.6z
	 M589.9,498.2c0.8-1.6,2.1-3,4-4.1c1.9-1.2,4-1.7,6.3-1.7c2.1,0,3.9,0.4,5.4,1.1c1.5,0.7,2.8,1.7,3.8,2.9c1,1.2,1.8,2.6,2.2,4.2
	c0.5,1.6,0.7,3.3,0.7,5.2v20.3h-6.5v-18.1c0-1.3-0.1-2.6-0.3-3.8c-0.2-1.2-0.6-2.3-1.1-3.2c-0.6-0.9-1.3-1.7-2.2-2.2
	c-0.9-0.6-2.2-0.8-3.7-0.8c-2.6,0-4.7,1-6.3,2.9c-1.7,2-2.5,4.6-2.5,7.8v17.4h-6.5v-52.1h6.5v24.4H589.9z M638.4,525.9h-7.6
	l21.2-48.8h6.2l21,48.8h-7.7l-5-12h-23.2L638.4,525.9z M645.7,507.9H664l-9.1-22.9L645.7,507.9z M707,525.9
	c-0.1-0.8-0.2-1.8-0.2-2.8c0-1-0.1-1.9-0.1-2.6h-0.1c-0.8,1.7-2.2,3.2-4.2,4.4c-2,1.2-4.1,1.8-6.5,1.8c-2.1,0-3.9-0.3-5.5-1
	c-1.5-0.7-2.8-1.6-3.8-2.9c-1-1.2-1.7-2.6-2.2-4.2s-0.7-3.3-0.7-5.2v-20.3h6.5v18.1c0,1.3,0.1,2.6,0.3,3.8c0.2,1.2,0.6,2.3,1.1,3.2
	c0.5,0.9,1.3,1.7,2.3,2.2c1,0.5,2.2,0.8,3.7,0.8c2.6,0,4.7-1,6.3-2.9s2.4-4.6,2.4-7.8v-17.4h6.5v25.7c0,0.9,0,2,0.1,3.4
	c0,1.4,0.1,2.6,0.2,3.7H707z M738.9,498.6h-8.7v17c0,2,0.4,3.4,1.1,4.2s1.9,1.3,3.5,1.3c0.6,0,1.2-0.1,1.9-0.2
	c0.7-0.1,1.3-0.3,1.9-0.6l0.2,5.3c-0.8,0.3-1.6,0.5-2.6,0.7c-0.9,0.2-1.9,0.2-2.9,0.2c-3.1,0-5.4-0.8-7.1-2.5
	c-1.6-1.7-2.4-4.3-2.4-7.7v-17.7h-6.3v-5.3h6.3v-9.4h6.4v9.4h8.7V498.6z M777.5,509.5c0,2.5-0.4,4.9-1.3,7c-0.9,2.1-2.1,3.9-3.7,5.5
	c-1.6,1.5-3.5,2.7-5.6,3.6c-2.2,0.9-4.5,1.3-7,1.3c-2.5,0-4.8-0.4-7-1.3c-2.2-0.8-4-2-5.6-3.6c-1.6-1.5-2.8-3.4-3.7-5.5
	c-0.9-2.1-1.3-4.4-1.3-7c0-2.5,0.4-4.8,1.3-6.9c0.9-2.1,2.1-3.9,3.7-5.4c1.6-1.5,3.4-2.7,5.6-3.6c2.2-0.8,4.5-1.3,7-1.3
	c2.5,0,4.8,0.4,7,1.3c2.2,0.9,4,2,5.6,3.6s2.8,3.3,3.7,5.4C777.1,504.7,777.5,507,777.5,509.5z M770.8,509.6c0-1.6-0.2-3.1-0.7-4.5
	c-0.5-1.4-1.2-2.7-2.1-3.7c-0.9-1.1-2.1-1.9-3.4-2.6c-1.4-0.6-2.9-1-4.7-1s-3.3,0.3-4.7,1c-1.4,0.6-2.5,1.5-3.4,2.6
	c-0.9,1.1-1.6,2.3-2.1,3.7s-0.7,2.9-0.7,4.5c0,1.6,0.2,3,0.7,4.5c0.5,1.4,1.2,2.7,2.1,3.8c0.9,1.1,2.1,2,3.4,2.6
	c1.4,0.6,2.9,1,4.7,1s3.3-0.3,4.7-1c1.4-0.6,2.5-1.5,3.4-2.6c0.9-1.1,1.6-2.4,2.1-3.8C770.5,512.6,770.8,511.1,770.8,509.6z
	 M795.6,494.2c1.8-1.2,4-1.8,6.4-1.8c2.2,0,4.2,0.5,6,1.5c1.8,1,3.2,2.7,4.2,5c1.1-2.1,2.6-3.7,4.6-4.9c2-1.1,4.1-1.7,6.5-1.7
	c2.1,0,3.9,0.4,5.4,1.1c1.5,0.7,2.8,1.7,3.8,2.9c1,1.2,1.8,2.6,2.2,4.2c0.5,1.6,0.7,3.3,0.7,5.2v20.3H829v-18.1
	c0-1.3-0.1-2.6-0.3-3.8c-0.2-1.2-0.6-2.3-1.2-3.2c-0.6-0.9-1.3-1.7-2.2-2.2c-0.9-0.6-2.1-0.8-3.5-0.8c-1.5,0-2.7,0.3-3.8,0.9
	c-1.1,0.6-1.9,1.4-2.6,2.4c-0.7,1-1.2,2.1-1.4,3.3c-0.3,1.2-0.4,2.5-0.4,3.8v17.7H807v-19.4c0-1.3-0.1-2.5-0.3-3.5
	c-0.2-1.1-0.6-2-1.2-2.7c-0.6-0.8-1.3-1.4-2.1-1.8s-2-0.7-3.2-0.7c-2.4,0-4.4,1-6,2.9c-1.6,2-2.4,4.6-2.4,7.8v17.4h-6.5v-25.7
	c0-0.9,0-2-0.1-3.4c0-1.4-0.1-2.6-0.2-3.7h6.1c0.1,0.8,0.2,1.8,0.2,2.8c0,1,0.1,1.9,0.1,2.6h0.2
	C792.5,496.9,793.8,495.4,795.6,494.2z M865.6,504.8c0-2.4-0.7-4.2-2.2-5.4s-3.4-1.8-5.9-1.8c-1.8,0-3.6,0.4-5.2,1.1
	c-1.6,0.7-3,1.6-4.1,2.7l-3.4-4.1c1.6-1.5,3.6-2.7,5.9-3.6c2.3-0.9,4.8-1.3,7.5-1.3c2.3,0,4.4,0.3,6.1,1c1.7,0.7,3.1,1.6,4.2,2.7
	c1.1,1.2,1.9,2.5,2.5,4.1c0.6,1.6,0.8,3.2,0.8,5v14.3c0,1.1,0,2.3,0.1,3.5c0.1,1.2,0.2,2.2,0.4,3h-5.9c-0.4-1.6-0.5-3.1-0.5-4.7
	h-0.2c-1.2,1.8-2.7,3.1-4.5,4.1c-1.8,1-4,1.4-6.4,1.4c-1.3,0-2.6-0.2-4-0.5c-1.4-0.3-2.7-0.9-3.8-1.7c-1.2-0.8-2.1-1.8-2.9-3.1
	c-0.8-1.3-1.1-2.9-1.1-4.8c0-2.5,0.7-4.4,2-5.9c1.3-1.4,3.1-2.6,5.2-3.3c2.2-0.8,4.6-1.3,7.3-1.5c2.7-0.2,5.4-0.3,8.2-0.3V504.8z
	 M864.1,510.4c-1.6,0-3.3,0.1-5,0.2c-1.7,0.1-3.3,0.4-4.7,0.8c-1.4,0.4-2.6,1-3.5,1.9c-0.9,0.8-1.4,1.9-1.4,3.3c0,1,0.2,1.8,0.6,2.4
	c0.4,0.6,0.9,1.2,1.6,1.6c0.6,0.4,1.4,0.7,2.1,0.9c0.8,0.2,1.6,0.2,2.4,0.2c3,0,5.4-0.9,7-2.7c1.6-1.8,2.4-4.1,2.4-6.9v-1.7H864.1z
	 M897.5,498.6h-8.7v17c0,2,0.4,3.4,1.1,4.2s1.9,1.3,3.5,1.3c0.6,0,1.2-0.1,1.9-0.2c0.7-0.1,1.3-0.3,1.9-0.6l0.2,5.3
	c-0.8,0.3-1.6,0.5-2.6,0.7c-0.9,0.2-1.9,0.2-2.9,0.2c-3.1,0-5.4-0.8-7.1-2.5c-1.6-1.7-2.4-4.3-2.4-7.7v-17.7h-6.3v-5.3h6.3v-9.4h6.4
	v9.4h8.7V498.6z M910.6,481.5c0,1.2-0.4,2.2-1.3,3c-0.8,0.8-1.9,1.2-3,1.2c-1.2,0-2.2-0.4-3-1.2c-0.8-0.8-1.2-1.8-1.2-2.9
	c0-1.2,0.4-2.2,1.2-3c0.8-0.8,1.8-1.2,3-1.2c1.2,0,2.2,0.4,3,1.2C910.2,479.3,910.6,480.3,910.6,481.5z M909.6,525.9h-6.5v-32.7h6.5
	V525.9z M942.6,501.5c-0.7-1.1-1.7-1.9-3.1-2.7s-2.9-1.1-4.4-1.1c-1.7,0-3.2,0.3-4.5,1c-1.3,0.6-2.4,1.5-3.3,2.6
	c-0.9,1.1-1.6,2.3-2.1,3.8c-0.5,1.4-0.7,2.9-0.7,4.5c0,1.6,0.2,3.1,0.7,4.5c0.5,1.4,1.2,2.7,2.1,3.8c0.9,1.1,2,1.9,3.4,2.6
	c1.3,0.6,2.8,1,4.6,1c1.7,0,3.2-0.3,4.5-1c1.4-0.6,2.5-1.5,3.3-2.6l4.3,3.9c-1.4,1.6-3.1,2.9-5.2,3.8c-2.1,0.9-4.4,1.3-7,1.3
	c-2.5,0-4.9-0.4-7-1.2c-2.1-0.8-4-2-5.5-3.5c-1.6-1.5-2.8-3.3-3.7-5.4c-0.9-2.1-1.3-4.5-1.3-7.1c0-2.6,0.4-4.9,1.3-7
	c0.9-2.1,2.1-3.9,3.7-5.4c1.6-1.5,3.4-2.7,5.6-3.5c2.1-0.8,4.5-1.2,6.9-1.2c2.3,0,4.6,0.5,6.9,1.4c2.3,0.9,4.1,2.3,5.4,4
	L942.6,501.5z"/>
</svg>
