<?xml version="1.0" encoding="utf-8"?>
<!-- Generator: Adobe Illustrator 18.1.0, SVG Export Plug-In . SVG Version: 6.00 Build 0)  -->
<!DOCTYPE svg PUBLIC "-//W3C//DTD SVG 1.1//EN" "http://www.w3.org/Graphics/SVG/1.1/DTD/svg11.dtd">
<svg version="1.1" id="Layer_1" xmlns="http://www.w3.org/2000/svg" xmlns:xlink="http://www.w3.org/1999/xlink" x="0px" y="0px"
	 viewBox="0 417.8 1000 164.4" enable-background="new 0 417.8 1000 164.4" xml:space="preserve">
<path fill="#257FB9" d="M974,417.8H207.8H26c-14.3,0-26,12.3-26,27.4v109.6c0,15.1,11.7,27.4,26,27.4h181.8H974
	c14.3,0,26-12.3,26-27.4V445.2C1000,430.1,988.3,417.8,974,417.8z"/>
<path fill="#FFFFFF" d="M54.8,475.8c0-4.1,2.9-9.1,6.4-11.1l42-24.2c3.5-2,9.3-2,12.8,0l42,24.2c3.5,2,6.4,7,6.4,11.1v48.4
	c0,4.1-2.9,9.1-6.4,11.1l-42,24.2c-3.5,2-9.3,2-12.8,0l-42-24.2c-3.5-2-6.4-7-6.4-11.1V475.8z"/>
<path fill="#257FB9" d="M127.1,526.1l-3.5-7h-28l-3.4,7H75.4l27.5-56.2c1.5-3.1,4-4.6,6.7-4.6c2.8,0,5.3,1.7,6.7,4.5l27.5,56.3
	C143.8,526.1,127.1,526.1,127.1,526.1z M117.1,505.7l-7.5-15.5l-7.5,15.5H117.1z"/>
<path fill="#52B6ED" d="M132.1,519.1l-22.5-45.8V486l12.8,26.4h-32l19.2-39v-6.3c-2.5,0.2-3.8,1.5-5,3.6l-26.2,53.4h12.5l-3.8-4.9
	l3.3-6.9l4,4.9h30.4l3.4,6.9h12.6L132.1,519.1z"/>
<path fill="#FFFFFF" d="M229.5,519.7h23.8v6.6h-31.3v-53.3h7.5V519.7z M295.1,508.4c0,2.8-0.5,5.3-1.5,7.6c-1,2.3-2.3,4.3-4.1,6
	c-1.7,1.7-3.8,3-6.1,3.9s-4.9,1.4-7.6,1.4c-2.7,0-5.3-0.5-7.6-1.4c-2.4-0.9-4.4-2.2-6.1-3.9c-1.7-1.7-3.1-3.7-4-6s-1.5-4.8-1.5-7.6
	c0-2.8,0.5-5.3,1.5-7.6c1-2.3,2.3-4.3,4-5.9c1.7-1.7,3.7-2.9,6.1-3.9c2.4-0.9,4.9-1.4,7.6-1.4c2.7,0,5.2,0.5,7.6,1.4
	s4.4,2.2,6.1,3.9s3.1,3.6,4.1,5.9C294.6,503.1,295.1,505.6,295.1,508.4z M287.7,508.4c0-1.7-0.3-3.3-0.8-4.9
	c-0.5-1.6-1.3-2.9-2.3-4.1c-1-1.2-2.3-2.1-3.7-2.8c-1.5-0.7-3.2-1.1-5.1-1.1s-3.6,0.4-5.1,1.1c-1.5,0.7-2.7,1.6-3.7,2.8
	c-1,1.2-1.8,2.5-2.3,4.1c-0.5,1.6-0.8,3.2-0.8,4.9c0,1.7,0.3,3.3,0.8,4.9c0.5,1.6,1.3,2.9,2.3,4.1c1,1.2,2.3,2.2,3.7,2.8
	c1.5,0.7,3.2,1.1,5.1,1.1s3.6-0.4,5.1-1.1c1.5-0.7,2.7-1.7,3.7-2.8c1-1.2,1.8-2.6,2.3-4.1C287.4,511.7,287.7,510.1,287.7,508.4z
	 M306.4,532.4c1.6,1.8,3.5,3.2,5.8,4.2c2.3,1.1,4.7,1.6,7.2,1.6c2.4,0,4.3-0.3,5.9-1c1.6-0.7,2.9-1.6,3.9-2.8c1-1.2,1.7-2.6,2.1-4.2
	c0.4-1.6,0.6-3.3,0.6-5.2v-4.6h-0.1c-1.3,2-3.1,3.5-5.4,4.6c-2.3,1.1-4.7,1.6-7.2,1.6c-2.7,0-5.2-0.5-7.4-1.4
	c-2.2-1-4.1-2.3-5.7-3.9c-1.6-1.7-2.8-3.6-3.6-5.8c-0.9-2.2-1.3-4.6-1.3-7.2c0-2.6,0.4-5,1.3-7.2s2.1-4.2,3.6-5.9
	c1.6-1.7,3.4-3,5.7-4c2.2-1,4.7-1.5,7.4-1.5c2.6,0,5,0.6,7.4,1.7c2.3,1.1,4.2,2.8,5.5,5.1h0.2v-5.7h6.8v33.9c0,2.6-0.3,5.1-1,7.5
	c-0.7,2.4-1.8,4.5-3.3,6.3c-1.6,1.8-3.6,3.3-6.1,4.4c-2.5,1.1-5.6,1.7-9.3,1.7c-3.1,0-6.2-0.6-9.4-1.7c-3.1-1.1-5.8-2.7-8.1-4.8
	L306.4,532.4z M308.5,508.1c0,1.7,0.3,3.2,0.8,4.7c0.5,1.5,1.3,2.8,2.3,4c1,1.2,2.3,2.1,3.7,2.8c1.5,0.7,3.1,1.1,5,1.1
	c1.8,0,3.5-0.3,5-1c1.5-0.7,2.8-1.5,3.9-2.7c1.1-1.1,1.9-2.5,2.4-4c0.6-1.5,0.9-3.2,0.9-4.9c0-1.7-0.3-3.3-0.9-4.8
	c-0.6-1.5-1.4-2.8-2.5-4c-1.1-1.2-2.4-2.1-3.9-2.7c-1.5-0.7-3.1-1-4.9-1c-1.9,0-3.5,0.3-5,1c-1.5,0.7-2.7,1.6-3.7,2.7
	c-1,1.1-1.8,2.5-2.3,4S308.5,506.4,308.5,508.1z M375.8,477.7c0,1.3-0.5,2.4-1.4,3.2c-0.9,0.9-2,1.3-3.3,1.3c-1.3,0-2.4-0.4-3.3-1.3
	c-0.9-0.9-1.3-1.9-1.3-3.2c0-1.3,0.4-2.4,1.3-3.3c0.9-0.9,2-1.3,3.3-1.3c1.3,0,2.4,0.4,3.3,1.3C375.3,475.3,375.8,476.4,375.8,477.7
	z M374.6,526.3h-7.1v-35.7h7.1V526.3z M392.1,490.6c0.1,0.9,0.2,1.9,0.2,3.1c0.1,1.1,0.1,2.1,0.1,2.8h0.2c0.5-0.9,1.1-1.8,1.8-2.7
	c0.8-0.8,1.7-1.6,2.7-2.2c1-0.6,2.1-1.1,3.3-1.5c1.2-0.3,2.5-0.5,3.8-0.5c2.3,0,4.3,0.4,6,1.2c1.7,0.8,3,1.8,4.1,3.1
	c1.1,1.3,1.9,2.8,2.5,4.6c0.5,1.8,0.8,3.6,0.8,5.6v22.2h-7.1v-19.8c0-1.5-0.1-2.8-0.3-4.1s-0.6-2.5-1.2-3.5c-0.6-1-1.4-1.8-2.5-2.4
	c-1.1-0.6-2.4-0.9-4.1-0.9c-2.8,0-5.1,1.1-6.9,3.2c-1.8,2.1-2.7,5-2.7,8.5v19h-7.1v-28c0-1,0-2.2-0.1-3.7c-0.1-1.5-0.1-2.8-0.2-4
	H392.1z M448.5,490.6l8.1,27.3h0.2l8.5-27.3h7.5l8.7,27.3h0.2l8.1-27.3h7.5l-11.8,35.7h-7.4l-8.8-26.8h-0.2l-8.7,26.8h-7.4
	l-11.9-35.7H448.5z M511.1,477.7c0,1.3-0.5,2.4-1.4,3.2c-0.9,0.9-2,1.3-3.3,1.3c-1.3,0-2.4-0.4-3.3-1.3c-0.9-0.9-1.3-1.9-1.3-3.2
	c0-1.3,0.4-2.4,1.3-3.3c0.9-0.9,2-1.3,3.3-1.3c1.3,0,2.4,0.4,3.3,1.3C510.6,475.3,511.1,476.4,511.1,477.7z M509.9,526.3h-7.1v-35.7
	h7.1V526.3z M538.5,496.4H529v18.6c0,2.2,0.4,3.7,1.2,4.6c0.8,0.9,2.1,1.4,3.8,1.4c0.6,0,1.4-0.1,2.1-0.2c0.8-0.1,1.4-0.3,2-0.6
	l0.2,5.8c-0.9,0.3-1.8,0.5-2.8,0.7c-1,0.2-2.1,0.3-3.2,0.3c-3.4,0-5.9-0.9-7.7-2.8c-1.8-1.9-2.7-4.6-2.7-8.4v-19.4h-6.9v-5.8h6.9
	v-10.2h7v10.2h9.5V496.4z M551.9,496c0.8-1.8,2.3-3.3,4.4-4.5c2.1-1.3,4.4-1.9,6.9-1.9c2.3,0,4.3,0.4,6,1.2c1.7,0.8,3,1.8,4.1,3.1
	c1.1,1.3,1.9,2.8,2.4,4.6c0.5,1.8,0.8,3.6,0.8,5.6v22.2h-7.1v-19.8c0-1.5-0.1-2.8-0.3-4.2c-0.2-1.3-0.6-2.5-1.2-3.5
	c-0.6-1-1.4-1.8-2.4-2.4c-1-0.6-2.4-0.9-4-0.9c-2.8,0-5.1,1.1-6.9,3.2s-2.7,5-2.7,8.6v19h-7.1v-57h7.1V496H551.9z M607.4,526.3h-8.3
	l23.1-53.3h6.8l22.9,53.3h-8.4l-5.4-13.1h-25.3L607.4,526.3z M615.3,506.6h20l-9.9-25L615.3,506.6z M682.3,526.3
	c-0.1-0.9-0.2-1.9-0.2-3.1c-0.1-1.1-0.1-2.1-0.1-2.8h-0.1c-0.9,1.9-2.4,3.5-4.6,4.9c-2.1,1.3-4.5,2-7.1,2c-2.3,0-4.3-0.4-6-1.1
	c-1.7-0.7-3.1-1.8-4.1-3.1s-1.9-2.9-2.4-4.6c-0.5-1.8-0.8-3.6-0.8-5.7v-22.1h7.1v19.7c0,1.5,0.1,2.8,0.3,4.2
	c0.2,1.3,0.6,2.5,1.2,3.5s1.4,1.8,2.5,2.4c1.1,0.6,2.4,0.9,4.1,0.9c2.9,0,5.2-1.1,6.9-3.2c1.8-2.1,2.6-5,2.6-8.6v-19h7.1v28
	c0,1,0,2.2,0.1,3.7c0.1,1.5,0.1,2.8,0.2,4H682.3z M717.1,496.4h-9.5v18.6c0,2.2,0.4,3.7,1.2,4.6c0.8,0.9,2.1,1.4,3.8,1.4
	c0.7,0,1.4-0.1,2.1-0.2c0.7-0.1,1.4-0.3,2-0.6l0.2,5.8c-0.9,0.3-1.8,0.5-2.8,0.7c-1,0.2-2.1,0.3-3.2,0.3c-3.4,0-5.9-0.9-7.7-2.8
	c-1.8-1.9-2.7-4.6-2.7-8.4v-19.4h-6.9v-5.8h6.9v-10.2h7v10.2h9.5V496.4z M759.3,508.4c0,2.8-0.5,5.3-1.5,7.6c-1,2.3-2.3,4.3-4.1,6
	c-1.7,1.7-3.8,3-6.1,3.9c-2.4,0.9-4.9,1.4-7.6,1.4c-2.7,0-5.3-0.5-7.6-1.4c-2.4-0.9-4.4-2.2-6.1-3.9c-1.7-1.7-3.1-3.7-4-6
	c-1-2.3-1.5-4.8-1.5-7.6c0-2.8,0.5-5.3,1.5-7.6c1-2.3,2.3-4.3,4-5.9s3.7-2.9,6.1-3.9c2.4-0.9,4.9-1.4,7.6-1.4c2.7,0,5.3,0.5,7.6,1.4
	c2.4,0.9,4.4,2.2,6.1,3.9c1.7,1.7,3.1,3.6,4.1,5.9C758.8,503.1,759.3,505.6,759.3,508.4z M751.9,508.4c0-1.7-0.3-3.3-0.8-4.9
	c-0.5-1.6-1.3-2.9-2.3-4.1c-1-1.2-2.3-2.1-3.7-2.8c-1.5-0.7-3.2-1.1-5.1-1.1c-1.9,0-3.6,0.4-5.1,1.1c-1.5,0.7-2.7,1.6-3.7,2.8
	c-1,1.2-1.8,2.5-2.3,4.1c-0.5,1.6-0.8,3.2-0.8,4.9c0,1.7,0.3,3.3,0.8,4.9c0.5,1.6,1.3,2.9,2.3,4.1c1,1.2,2.2,2.2,3.7,2.8
	c1.5,0.7,3.2,1.1,5.1,1.1c1.9,0,3.6-0.4,5.1-1.1c1.5-0.7,2.7-1.7,3.7-2.8c1-1.2,1.8-2.6,2.3-4.1
	C751.7,511.7,751.9,510.1,751.9,508.4z M779.1,491.6c2-1.3,4.3-2,7-2c2.4,0,4.6,0.6,6.5,1.7c1.9,1.1,3.5,2.9,4.6,5.5
	c1.2-2.3,2.9-4.1,5.1-5.3s4.5-1.8,7.1-1.8c2.3,0,4.3,0.4,6,1.2c1.7,0.8,3,1.8,4.1,3.1c1.1,1.3,1.9,2.8,2.5,4.6
	c0.5,1.8,0.8,3.6,0.8,5.6v22.2h-7.1v-19.8c0-1.5-0.1-2.8-0.4-4.1c-0.2-1.3-0.7-2.5-1.3-3.5c-0.6-1-1.4-1.8-2.4-2.4
	c-1-0.6-2.3-0.9-3.8-0.9c-1.6,0-3,0.3-4.1,1c-1.2,0.7-2.1,1.6-2.8,2.6c-0.7,1.1-1.3,2.3-1.6,3.7c-0.3,1.4-0.5,2.7-0.5,4.1v19.3h-7.1
	V505c0-1.4-0.1-2.7-0.4-3.8c-0.2-1.2-0.7-2.1-1.3-3c-0.6-0.8-1.4-1.5-2.3-2c-0.9-0.5-2.1-0.7-3.5-0.7c-2.6,0-4.8,1.1-6.5,3.2
	c-1.7,2.1-2.6,5-2.6,8.5v19h-7.1v-28c0-1,0-2.2-0.1-3.7s-0.1-2.8-0.2-4h6.7c0.1,0.9,0.2,1.9,0.2,3.1c0.1,1.1,0.1,2.1,0.1,2.8h0.2
	C775.7,494.5,777.1,492.9,779.1,491.6z M855.6,503.2c0-2.7-0.8-4.6-2.4-5.9c-1.6-1.3-3.7-1.9-6.4-1.9c-2,0-3.9,0.4-5.7,1.2
	c-1.8,0.8-3.3,1.8-4.5,3l-3.8-4.5c1.8-1.7,3.9-3,6.4-3.9c2.5-0.9,5.3-1.4,8.2-1.4c2.6,0,4.8,0.4,6.7,1.1s3.4,1.7,4.6,3
	c1.2,1.3,2.1,2.7,2.7,4.4c0.6,1.7,0.9,3.5,0.9,5.5v15.6c0,1.2,0,2.5,0.1,3.8c0.1,1.3,0.2,2.4,0.4,3.3h-6.4c-0.4-1.7-0.6-3.4-0.6-5.1
	h-0.2c-1.3,1.9-2.9,3.4-4.9,4.4c-2,1.1-4.3,1.6-7,1.6c-1.4,0-2.9-0.2-4.4-0.6c-1.5-0.4-2.9-1-4.2-1.8c-1.3-0.9-2.3-2-3.1-3.4
	c-0.8-1.4-1.2-3.1-1.2-5.2c0-2.7,0.7-4.9,2.2-6.4c1.5-1.6,3.4-2.8,5.7-3.6c2.4-0.8,5-1.4,8-1.6c3-0.3,5.9-0.4,9-0.4V503.2z
	 M853.9,509.3c-1.8,0-3.6,0.1-5.5,0.2c-1.9,0.2-3.6,0.5-5.1,0.9c-1.5,0.5-2.8,1.1-3.8,2c-1,0.9-1.5,2.1-1.5,3.6
	c0,1.1,0.2,1.9,0.6,2.6c0.4,0.7,1,1.3,1.7,1.7c0.7,0.5,1.5,0.8,2.3,0.9c0.9,0.2,1.7,0.3,2.6,0.3c3.3,0,5.9-1,7.7-3
	c1.8-2,2.7-4.5,2.7-7.5v-1.9H853.9z M890.4,496.4h-9.5v18.6c0,2.2,0.4,3.7,1.2,4.6c0.8,0.9,2.1,1.4,3.8,1.4c0.6,0,1.4-0.1,2.1-0.2
	c0.8-0.1,1.4-0.3,2-0.6l0.2,5.8c-0.9,0.3-1.8,0.5-2.8,0.7c-1,0.2-2.1,0.3-3.2,0.3c-3.4,0-5.9-0.9-7.7-2.8c-1.8-1.9-2.7-4.6-2.7-8.4
	v-19.4h-6.9v-5.8h6.9v-10.2h7v10.2h9.5V496.4z M904.7,477.7c0,1.3-0.5,2.4-1.4,3.2c-0.9,0.9-2,1.3-3.3,1.3c-1.3,0-2.4-0.4-3.3-1.3
	c-0.9-0.9-1.4-1.9-1.4-3.2c0-1.3,0.5-2.4,1.4-3.3c0.9-0.9,2-1.3,3.3-1.3c1.3,0,2.4,0.4,3.3,1.3C904.3,475.3,904.7,476.4,904.7,477.7
	z M903.6,526.3h-7.1v-35.7h7.1V526.3z M939.7,499.6c-0.7-1.2-1.9-2.1-3.4-2.9c-1.5-0.8-3.1-1.2-4.8-1.2c-1.9,0-3.5,0.4-4.9,1.1
	c-1.4,0.7-2.6,1.6-3.7,2.8c-1,1.2-1.8,2.6-2.3,4.1c-0.5,1.6-0.8,3.2-0.8,4.9c0,1.7,0.3,3.3,0.8,4.9c0.5,1.6,1.3,2.9,2.3,4.1
	c1,1.2,2.2,2.1,3.7,2.8c1.5,0.7,3.1,1.1,5,1.1c1.8,0,3.5-0.4,4.9-1.1c1.5-0.7,2.7-1.7,3.7-2.9l4.7,4.3c-1.5,1.8-3.4,3.1-5.7,4.1
	c-2.3,1-4.8,1.5-7.7,1.5c-2.8,0-5.3-0.4-7.7-1.4c-2.3-0.9-4.4-2.2-6.1-3.8c-1.7-1.6-3.1-3.6-4-5.9c-1-2.3-1.5-4.9-1.5-7.8
	c0-2.8,0.5-5.4,1.4-7.7c1-2.3,2.3-4.3,4-6c1.7-1.7,3.7-2.9,6.1-3.8c2.3-0.9,4.9-1.4,7.6-1.4c2.5,0,5,0.5,7.5,1.5
	c2.5,1,4.5,2.5,5.9,4.4L939.7,499.6z"/>
</svg>
