<?xml version="1.0" encoding="utf-8"?>
<!-- Generator: Adobe Illustrator 18.1.0, SVG Export Plug-In . SVG Version: 6.00 Build 0)  -->
<!DOCTYPE svg PUBLIC "-//W3C//DTD SVG 1.1//EN" "http://www.w3.org/Graphics/SVG/1.1/DTD/svg11.dtd">
<svg version="1.1" id="Layer_1" xmlns="http://www.w3.org/2000/svg" xmlns:xlink="http://www.w3.org/1999/xlink" x="0px" y="0px"
	 viewBox="0 414.4 1000 171.1" enable-background="new 0 414.4 1000 171.1" xml:space="preserve">
<path fill="#257FB9" d="M979.7,414.4H203l0,0H20.3C9.1,414.4,0,424.1,0,435.8v128.3c0,11.8,9.1,21.4,20.3,21.4H203l0,0h776.6
	c11.2,0,20.3-9.6,20.3-21.4V435.8C1000,424.1,990.9,414.4,979.7,414.4z"/>
<path fill="#FFFFFF" d="M215,474.8h6.3V522h24.3v5.8H215V474.8z M249.4,510.3c0-2.7,0.5-5.2,1.4-7.5c0.9-2.2,2.2-4.2,3.9-5.8
	c1.7-1.6,3.6-2.9,5.9-3.8c2.3-0.9,4.8-1.3,7.5-1.3c2.7,0,5.2,0.4,7.5,1.3s4.3,2.2,5.9,3.8c1.6,1.6,2.9,3.6,3.9,5.8s1.4,4.7,1.4,7.5
	c0,2.7-0.5,5.2-1.4,7.5c-1,2.2-2.2,4.2-3.9,5.8c-1.7,1.6-3.6,2.9-5.9,3.8c-2.3,0.9-4.8,1.3-7.5,1.3c-2.7,0-5.2-0.4-7.5-1.3
	c-2.3-0.9-4.3-2.2-5.9-3.8c-1.6-1.6-2.9-3.6-3.9-5.8C249.8,515.5,249.4,513,249.4,510.3z M255.6,510.3c0,1.8,0.3,3.6,0.9,5.1
	c0.6,1.6,1.4,2.9,2.5,4.1c1.1,1.2,2.4,2.1,3.9,2.8c1.5,0.7,3.2,1,5.1,1c1.9,0,3.6-0.3,5.1-1c1.5-0.7,2.8-1.6,3.9-2.8
	s1.9-2.5,2.5-4.1c0.6-1.6,0.9-3.3,0.9-5.1c0-1.8-0.3-3.6-0.9-5.1c-0.6-1.6-1.4-2.9-2.5-4.1c-1.1-1.2-2.4-2.1-3.9-2.8
	c-1.5-0.7-3.2-1-5.1-1c-1.9,0-3.6,0.3-5.1,1c-1.5,0.7-2.8,1.6-3.9,2.8c-1.1,1.2-1.9,2.5-2.5,4.1
	C255.9,506.7,255.6,508.4,255.6,510.3z M330.8,526.2c0,6.4-1.6,11.2-4.9,14.6c-3.3,3.3-8,5-14.2,5c-3.4,0-6.5-0.5-9.3-1.5
	c-2.8-1-5.4-2.7-7.9-5.2l4.2-4.8c1.8,2,3.8,3.5,5.9,4.5c2.1,1,4.5,1.5,7.1,1.5c2.6,0,4.8-0.4,6.5-1.2c1.7-0.8,3.1-1.8,4.1-3.1
	c1-1.3,1.7-2.8,2.1-4.5c0.4-1.7,0.6-3.5,0.6-5.3v-4.5h-0.2c-1.4,2.2-3.2,3.9-5.5,4.9s-4.5,1.6-6.9,1.6c-2.7,0-5.3-0.4-7.6-1.3
	c-2.3-0.9-4.3-2.1-5.9-3.7c-1.6-1.6-2.9-3.5-3.8-5.7c-0.9-2.2-1.3-4.6-1.3-7.2c0-2.8,0.4-5.4,1.3-7.7c0.9-2.3,2.2-4.2,3.8-5.8
	s3.6-2.8,5.9-3.6c2.3-0.8,4.8-1.3,7.6-1.3c1.2,0,2.4,0.1,3.6,0.4c1.2,0.3,2.4,0.7,3.5,1.3c1.1,0.6,2.1,1.3,3,2.2
	c0.9,0.9,1.6,1.9,2.2,3h0.2v-6h5.8V526.2z M300.1,510.3c0,1.8,0.3,3.5,1,5c0.6,1.5,1.5,2.8,2.7,4c1.1,1.1,2.4,2,3.9,2.7
	c1.5,0.7,3.1,1,4.8,1c2,0,3.8-0.3,5.3-1c1.5-0.7,2.9-1.6,3.9-2.8c1.1-1.2,1.9-2.5,2.4-4c0.5-1.5,0.8-3.1,0.8-4.8
	c0-1.9-0.3-3.6-0.9-5.2c-0.6-1.6-1.5-2.9-2.5-4.1s-2.4-2-4-2.7c-1.6-0.6-3.2-0.9-5.1-0.9c-1.8,0-3.5,0.3-5.1,1
	c-1.5,0.7-2.8,1.6-3.9,2.8c-1.1,1.2-1.9,2.5-2.5,4.1C300.4,506.7,300.1,508.4,300.1,510.3z M361.6,479.1c0-1.1,0.4-2.1,1.2-3
	c0.8-0.9,1.8-1.3,3-1.3s2.2,0.4,3,1.3c0.8,0.8,1.2,1.8,1.2,3c0,1.2-0.4,2.3-1.2,3.1s-1.8,1.2-3.1,1.2s-2.3-0.4-3.1-1.2
	C362,481.3,361.6,480.3,361.6,479.1z M362.9,492.8h5.8v35h-5.8V492.8z M380.4,501.1c0-1.6-0.1-3.1-0.2-4.5c-0.1-1.4-0.1-2.7-0.1-3.8
	h5.5c0,0.9,0,1.9,0.1,2.8c0,0.9,0.1,1.9,0.1,2.9h0.2c0.4-0.9,1-1.7,1.7-2.5c0.7-0.8,1.6-1.5,2.6-2.1c1-0.6,2.1-1.1,3.4-1.5
	c1.2-0.4,2.6-0.6,4-0.6c2.3,0,4.3,0.3,6,1c1.7,0.7,3.1,1.7,4.2,2.9c1.1,1.2,1.9,2.8,2.4,4.5c0.5,1.8,0.8,3.7,0.8,5.8v21.6h-5.8v-21
	c0-2.9-0.6-5.3-1.9-7c-1.3-1.7-3.3-2.5-6.1-2.5c-1.9,0-3.5,0.3-4.9,1c-1.4,0.7-2.5,1.6-3.4,2.8c-0.9,1.2-1.5,2.6-1.9,4.3
	c-0.4,1.6-0.6,3.5-0.6,5.5v17.1h-5.8V501.1z M480.4,527.8h-5.8l-10-27h-0.2l-8.8,27h-6l-11.4-35h6.4l8,27h0.2l9.1-27h6.1l9.2,27h0.1
	l7.9-27h6.3L480.4,527.8z M497.5,479.1c0-1.1,0.4-2.1,1.2-3c0.8-0.9,1.8-1.3,3-1.3c1.2,0,2.2,0.4,3,1.3c0.8,0.8,1.2,1.8,1.2,3
	c0,1.2-0.4,2.3-1.2,3.1s-1.8,1.2-3.1,1.2c-1.2,0-2.3-0.4-3.1-1.2S497.5,480.3,497.5,479.1z M498.8,492.8h5.8v35h-5.8V492.8z
	 M535.4,497.7h-10.3v17.5c0,1.1,0,2.2,0.1,3.2c0,1,0.2,1.8,0.6,2.5c0.3,0.7,0.9,1.3,1.6,1.7c0.7,0.4,1.7,0.6,3,0.6
	c0.8,0,1.7-0.1,2.6-0.3c0.9-0.2,1.7-0.5,2.5-0.9l0.2,5.3c-1,0.4-2.1,0.8-3.3,1c-1.2,0.2-2.4,0.3-3.5,0.3c-2.1,0-3.8-0.3-5-0.8
	c-1.2-0.5-2.2-1.3-2.9-2.3s-1.2-2.2-1.4-3.7c-0.2-1.5-0.3-3.1-0.3-4.9v-19.2h-7.6v-4.9h7.6v-10h5.8v10h10.3V497.7z M542.6,471.2h5.8
	v26.4h0.2c0.4-0.7,0.9-1.4,1.6-2.1s1.5-1.3,2.5-1.8c1-0.5,2.1-1,3.3-1.3c1.2-0.3,2.5-0.5,3.8-0.5c2.3,0,4.3,0.3,6,1
	c1.7,0.7,3.1,1.7,4.2,2.9c1.1,1.2,1.9,2.8,2.4,4.5c0.5,1.8,0.8,3.7,0.8,5.8v21.6h-5.8v-21c0-2.9-0.6-5.3-1.9-7
	c-1.3-1.7-3.3-2.5-6.1-2.5c-1.9,0-3.5,0.3-4.9,1c-1.4,0.7-2.5,1.6-3.4,2.8c-0.9,1.2-1.5,2.6-1.9,4.3c-0.4,1.6-0.6,3.5-0.6,5.5v17.1
	h-5.8V471.2z M623.3,474.8h5.9l22.5,53h-7.3l-5.4-13h-26.5l-5.5,13h-7.1L623.3,474.8z M626.2,482.9H626l-11,26.1h21.6L626.2,482.9z
	 M688.3,519.5c0,1.6,0,3.1,0.1,4.5c0.1,1.4,0.2,2.7,0.2,3.8H683c0-0.9,0-1.9-0.1-2.8c-0.1-0.9-0.1-1.9-0.1-2.9h-0.2
	c-0.4,0.9-1,1.7-1.7,2.5c-0.7,0.8-1.6,1.5-2.6,2.1c-1,0.6-2.1,1.1-3.4,1.5c-1.2,0.4-2.6,0.6-4,0.6c-2.3,0-4.3-0.3-5.9-1
	c-1.7-0.7-3.1-1.7-4.2-2.9c-1.1-1.2-1.9-2.8-2.4-4.5c-0.5-1.8-0.8-3.7-0.8-5.8v-21.6h5.8v21c0,2.9,0.6,5.3,1.9,7
	c1.3,1.7,3.3,2.5,6.1,2.5c1.9,0,3.5-0.3,4.9-1c1.4-0.6,2.5-1.6,3.4-2.8s1.5-2.6,1.9-4.3c0.4-1.7,0.6-3.5,0.6-5.5v-17.1h5.8V519.5z
	 M718.5,497.7h-10.3v17.5c0,1.1,0,2.2,0.1,3.2c0,1,0.2,1.8,0.6,2.5c0.3,0.7,0.9,1.3,1.6,1.7c0.7,0.4,1.7,0.6,3,0.6
	c0.8,0,1.7-0.1,2.6-0.3c0.9-0.2,1.7-0.5,2.5-0.9l0.2,5.3c-1,0.4-2.1,0.8-3.3,1c-1.2,0.2-2.4,0.3-3.5,0.3c-2.1,0-3.8-0.3-5-0.8
	s-2.2-1.3-2.9-2.3c-0.7-1-1.2-2.2-1.4-3.7c-0.2-1.5-0.3-3.1-0.3-4.9v-19.2h-7.6v-4.9h7.6v-10h5.8v10h10.3V497.7z M723.7,510.3
	c0-2.7,0.5-5.2,1.4-7.5c0.9-2.2,2.2-4.2,3.9-5.8c1.7-1.6,3.6-2.9,5.9-3.8c2.3-0.9,4.8-1.3,7.5-1.3c2.7,0,5.2,0.4,7.5,1.3
	s4.3,2.2,5.9,3.8c1.6,1.6,2.9,3.6,3.9,5.8s1.4,4.7,1.4,7.5c0,2.7-0.5,5.2-1.4,7.5c-1,2.2-2.2,4.2-3.9,5.8c-1.7,1.6-3.6,2.9-5.9,3.8
	c-2.3,0.9-4.8,1.3-7.5,1.3c-2.7,0-5.2-0.4-7.5-1.3c-2.3-0.9-4.3-2.2-5.9-3.8c-1.6-1.6-2.9-3.6-3.9-5.8
	C724.2,515.5,723.7,513,723.7,510.3z M730,510.3c0,1.8,0.3,3.6,0.9,5.1c0.6,1.6,1.4,2.9,2.5,4.1c1.1,1.2,2.4,2.1,3.9,2.8
	c1.5,0.7,3.2,1,5.1,1c1.9,0,3.6-0.3,5.1-1c1.5-0.7,2.8-1.6,3.9-2.8s1.9-2.5,2.5-4.1s0.9-3.3,0.9-5.1c0-1.8-0.3-3.6-0.9-5.1
	s-1.4-2.9-2.5-4.1c-1.1-1.2-2.4-2.1-3.9-2.8c-1.5-0.7-3.2-1-5.1-1c-1.9,0-3.6,0.3-5.1,1c-1.5,0.7-2.8,1.6-3.9,2.8
	c-1.1,1.2-1.9,2.5-2.5,4.1C730.3,506.7,730,508.4,730,510.3z M770.2,501.1c0-1.6-0.1-3.1-0.2-4.5c-0.1-1.4-0.1-2.7-0.1-3.8h5.5
	c0,0.9,0,1.9,0.1,2.8c0,0.9,0.1,1.9,0.1,2.9h0.2c0.4-0.9,1-1.7,1.7-2.5c0.7-0.8,1.6-1.5,2.6-2.1c1-0.6,2.1-1.1,3.4-1.5
	c1.2-0.4,2.6-0.6,4-0.6c1.9,0,3.5,0.2,4.8,0.7c1.3,0.5,2.3,1,3.2,1.7c0.8,0.7,1.5,1.4,2,2.2c0.5,0.8,0.9,1.5,1.2,2.1
	c1.3-2.1,2.8-3.7,4.5-4.9c1.7-1.2,3.9-1.8,6.6-1.8c2.5,0,4.6,0.3,6.3,1c1.7,0.7,3.1,1.7,4.1,2.9c1,1.3,1.8,2.8,2.2,4.6
	c0.4,1.8,0.7,3.9,0.7,6.1v21.3h-5.8v-21c0-1.2-0.1-2.4-0.4-3.5c-0.3-1.1-0.7-2.2-1.3-3.1c-0.7-0.9-1.5-1.6-2.6-2.2s-2.5-0.8-4.2-0.8
	c-1.2,0-2.4,0.3-3.5,0.7c-1.1,0.5-2.1,1.2-2.9,2.1c-0.8,0.9-1.5,2-1.9,3.3c-0.5,1.3-0.7,2.7-0.7,4.2v20.2h-5.8V508
	c0-3.9-0.5-6.6-1.6-8.3c-1-1.6-2.8-2.4-5.2-2.4c-1.9,0-3.5,0.3-4.9,1c-1.4,0.7-2.5,1.6-3.4,2.8c-0.9,1.2-1.5,2.6-1.9,4.3
	c-0.4,1.6-0.6,3.5-0.6,5.5v17.1h-5.8V501.1z M833.5,497.3c1.8-1.8,3.9-3.2,6.4-4.1c2.5-0.9,5-1.3,7.5-1.3c5.2,0,8.9,1.2,11.2,3.7
	c2.3,2.4,3.4,6.2,3.4,11.2v15.1c0,1,0.1,2,0.2,3.1c0.1,1.1,0.2,2.1,0.4,3H857c-0.2-0.8-0.3-1.7-0.3-2.7c0-1,0-1.8,0-2.6h-0.2
	c-1.1,1.8-2.7,3.3-4.6,4.4c-1.9,1.1-4.2,1.7-6.9,1.7c-1.8,0-3.5-0.2-5.1-0.7c-1.6-0.4-2.9-1.1-4.1-2c-1.2-0.9-2.1-2-2.8-3.3
	c-0.7-1.3-1-2.8-1-4.5c0-2.9,0.7-5.2,2.2-6.8c1.5-1.7,3.4-2.9,5.6-3.7c2.2-0.8,4.6-1.3,7.2-1.5c2.6-0.2,4.9-0.3,7.1-0.3h2.2v-1
	c0-2.5-0.8-4.5-2.3-5.8c-1.5-1.3-3.7-1.9-6.4-1.9c-1.9,0-3.8,0.3-5.6,0.9c-1.8,0.6-3.4,1.6-4.8,2.9L833.5,497.3z M850.4,511
	c-3.7,0-6.7,0.5-8.9,1.6c-2.2,1-3.3,2.8-3.3,5.2c0,2.2,0.7,3.8,2.2,4.7c1.5,0.9,3.3,1.4,5.5,1.4c1.7,0,3.2-0.3,4.5-0.9
	s2.3-1.3,3.2-2.3c0.9-1,1.5-2.1,1.9-3.3c0.4-1.3,0.7-2.6,0.7-4.1V511H850.4z M892,497.7h-10.3v17.5c0,1.1,0,2.2,0.1,3.2
	c0,1,0.2,1.8,0.6,2.5c0.3,0.7,0.9,1.3,1.6,1.7c0.7,0.4,1.7,0.6,3,0.6c0.8,0,1.7-0.1,2.6-0.3c0.9-0.2,1.7-0.5,2.5-0.9l0.2,5.3
	c-1,0.4-2.1,0.8-3.3,1c-1.2,0.2-2.4,0.3-3.5,0.3c-2.1,0-3.8-0.3-5-0.8s-2.2-1.3-2.9-2.3s-1.2-2.2-1.4-3.7c-0.2-1.5-0.3-3.1-0.3-4.9
	v-19.2h-7.6v-4.9h7.6v-10h5.8v10H892V497.7z M898.4,479.1c0-1.1,0.4-2.1,1.2-3c0.8-0.9,1.8-1.3,3-1.3c1.2,0,2.2,0.4,3,1.3
	c0.8,0.8,1.2,1.8,1.2,3c0,1.2-0.4,2.3-1.2,3.1s-1.8,1.2-3.1,1.2c-1.2,0-2.3-0.4-3.1-1.2S898.4,480.3,898.4,479.1z M899.7,492.8h5.8
	v35h-5.8V492.8z M942.1,501.5c-1.2-1.5-2.6-2.6-4-3.3s-3-1-4.8-1c-1.9,0-3.7,0.3-5.2,1s-2.7,1.6-3.7,2.8c-1,1.2-1.7,2.6-2.2,4.2
	c-0.5,1.6-0.8,3.3-0.8,5c0,1.8,0.3,3.5,0.9,5.1c0.6,1.6,1.4,3,2.4,4.2c1,1.2,2.3,2.1,3.7,2.8c1.4,0.7,3.1,1,4.9,1
	c3.8,0,6.8-1.4,8.9-4.3l4.3,4.1c-1.7,1.9-3.7,3.4-6,4.3c-2.3,0.9-4.7,1.3-7.3,1.3c-2.7,0-5.2-0.4-7.4-1.3c-2.2-0.9-4.2-2.2-5.7-3.8
	c-1.6-1.7-2.8-3.6-3.7-5.8c-0.9-2.2-1.3-4.7-1.3-7.4c0-2.6,0.4-5.1,1.3-7.3c0.9-2.2,2.1-4.2,3.7-5.8c1.6-1.6,3.5-2.9,5.7-3.9
	c2.2-0.9,4.7-1.4,7.4-1.4c2.6,0,5.1,0.4,7.4,1.3c2.3,0.9,4.4,2.3,6.1,4.2L942.1,501.5z"/>
<path fill="#FFFFFF" d="M53.5,476.4c0-4,2.8-8.9,6.3-10.8l41-23.7c3.4-2,9.1-2,12.5,0l41,23.7c3.4,2,6.3,6.9,6.3,10.8v47.3
	c0,4-2.8,8.9-6.3,10.8l-41,23.6c-3.4,2-9.1,2-12.5,0l-41-23.6c-3.4-2-6.3-6.9-6.3-10.8V476.4z"/>
<path fill="#257FB9" d="M124,525.4l-3.4-6.9H93.3l-3.4,6.9H73.6l26.8-54.8c1.5-3,3.9-4.5,6.5-4.5c2.7,0,5.1,1.6,6.5,4.4l26.8,54.9
	H124z M114.3,505.6l-7.3-15.2l-7.3,15.2H114.3z"/>
<path fill="#52B6ED" d="M128.9,518.7L107,474v12.3l12.5,25.7H88.2l18.7-38v-6.1c-2.4,0.2-3.7,1.5-4.9,3.5l-25.6,52.2h12.2l-3.7-4.8
	l3.2-6.8l3.9,4.8h29.7l3.4,6.8h12.3L128.9,518.7z"/>
</svg>
