<?xml version="1.0" encoding="utf-8"?>
<!-- Generator: Adobe Illustrator 18.1.0, SVG Export Plug-In . SVG Version: 6.00 Build 0)  -->
<!DOCTYPE svg PUBLIC "-//W3C//DTD SVG 1.1//EN" "http://www.w3.org/Graphics/SVG/1.1/DTD/svg11.dtd">
<svg version="1.1" id="Layer_1" xmlns="http://www.w3.org/2000/svg" xmlns:xlink="http://www.w3.org/1999/xlink" x="0px" y="0px"
	 viewBox="0 413 1000 173.9" enable-background="new 0 413 1000 173.9" xml:space="preserve">
<path fill="#257FB9" d="M976.5,413H211.8H23.5C10.6,413,0,424.2,0,437.9v124.2C0,575.8,10.6,587,23.5,587h188.2h764.7
	c12.9,0,23.5-11.2,23.5-24.8V437.9C1000,424.2,989.4,413,976.5,413z"/>
<path fill="#FFFFFF" d="M55.9,475.3c0-4.2,2.9-9.3,6.5-11.3l42.8-24.7c3.6-2.1,9.5-2.1,13.1,0l42.8,24.7c3.6,2.1,6.5,7.2,6.5,11.3
	v49.4c0,4.2-2.9,9.3-6.5,11.3l-42.8,24.7c-3.6,2.1-9.5,2.1-13.1,0L62.4,536c-3.6-2.1-6.5-7.2-6.5-11.3V475.3z"/>
<path fill="#257FB9" d="M129.6,526.6l-3.6-7.2H97.5l-3.5,7.2H76.9l28.1-57.3c1.6-3.2,4-4.7,6.8-4.7c2.8,0,5.4,1.7,6.8,4.6l28.1,57.4
	H129.6z M119.5,505.8l-7.7-15.8l-7.7,15.8H119.5z"/>
<path fill="#52B6ED" d="M134.8,519.5l-23-46.7v12.9l13.1,26.9H92.2l19.6-39.7v-6.4c-2.5,0.2-3.9,1.5-5.1,3.7l-26.7,54.5h12.8l-3.9-5
	l3.4-7.1l4,5h31l3.5,7.1h12.9L134.8,519.5z"/>
<path fill="#FFFFFF" d="M234.2,521.5h23.6v6.6h-30.9v-52.8h7.4V521.5z M299,510.3c0,2.7-0.5,5.2-1.4,7.5c-1,2.3-2.3,4.3-4,5.9
	c-1.7,1.7-3.7,3-6.1,3.9c-2.3,0.9-4.8,1.4-7.5,1.4c-2.7,0-5.2-0.5-7.5-1.4c-2.3-0.9-4.3-2.2-6-3.9c-1.7-1.7-3-3.6-4-5.9
	c-1-2.3-1.5-4.8-1.5-7.5c0-2.7,0.5-5.2,1.5-7.5c1-2.3,2.3-4.2,4-5.9c1.7-1.6,3.7-2.9,6-3.8c2.3-0.9,4.8-1.4,7.5-1.4
	c2.7,0,5.2,0.5,7.5,1.4c2.3,0.9,4.4,2.2,6.1,3.8c1.7,1.6,3.1,3.6,4,5.9C298.5,505.1,299,507.6,299,510.3z M291.7,510.3
	c0-1.7-0.3-3.3-0.8-4.8c-0.5-1.5-1.3-2.9-2.3-4c-1-1.2-2.2-2.1-3.7-2.8c-1.5-0.7-3.2-1-5.1-1c-1.9,0-3.6,0.4-5,1
	c-1.5,0.7-2.7,1.6-3.7,2.8c-1,1.2-1.8,2.5-2.3,4s-0.8,3.1-0.8,4.8c0,1.7,0.3,3.3,0.8,4.8c0.5,1.5,1.3,2.9,2.3,4.1
	c1,1.2,2.2,2.1,3.7,2.8c1.5,0.7,3.2,1,5,1c1.9,0,3.6-0.3,5.1-1c1.5-0.7,2.7-1.6,3.7-2.8c1-1.2,1.8-2.6,2.3-4.1
	C291.4,513.6,291.7,512,291.7,510.3z M310.2,534.1c1.5,1.7,3.5,3.1,5.8,4.2c2.3,1,4.7,1.6,7.1,1.6c2.3,0,4.3-0.3,5.9-1
	c1.6-0.7,2.9-1.6,3.8-2.8c1-1.2,1.7-2.5,2.1-4.1c0.4-1.6,0.6-3.3,0.6-5.1v-4.5h-0.1c-1.3,2-3.1,3.5-5.3,4.5c-2.2,1-4.6,1.6-7.2,1.6
	c-2.7,0-5.1-0.5-7.3-1.4c-2.2-0.9-4.1-2.2-5.6-3.9c-1.5-1.6-2.7-3.6-3.6-5.8c-0.8-2.2-1.3-4.6-1.3-7.1c0-2.5,0.4-4.9,1.3-7.2
	c0.8-2.2,2-4.2,3.6-5.8c1.5-1.7,3.4-3,5.6-4c2.2-1,4.6-1.4,7.3-1.4c2.5,0,5,0.5,7.3,1.6c2.3,1.1,4.1,2.8,5.5,5h0.2v-5.7h6.8v33.5
	c0,2.6-0.3,5.1-1,7.4c-0.6,2.4-1.7,4.4-3.3,6.3c-1.5,1.8-3.6,3.3-6,4.4c-2.5,1.1-5.6,1.6-9.2,1.6c-3.1,0-6.2-0.6-9.3-1.7
	c-3.1-1.1-5.8-2.7-8-4.7L310.2,534.1z M312.3,510c0,1.6,0.3,3.2,0.8,4.7c0.5,1.5,1.3,2.8,2.3,4c1,1.1,2.3,2.1,3.7,2.8
	c1.4,0.7,3.1,1,4.9,1c1.8,0,3.4-0.3,4.9-1c1.5-0.6,2.8-1.5,3.8-2.7c1-1.1,1.9-2.4,2.4-3.9c0.6-1.5,0.9-3.1,0.9-4.9
	c0-1.7-0.3-3.3-0.9-4.8c-0.6-1.5-1.4-2.8-2.5-3.9c-1.1-1.1-2.3-2.1-3.8-2.7c-1.5-0.7-3.1-1-4.9-1c-1.8,0-3.5,0.3-4.9,1
	c-1.4,0.7-2.7,1.6-3.7,2.7c-1,1.1-1.8,2.4-2.3,4C312.5,506.7,312.3,508.3,312.3,510z M378.8,480c0,1.3-0.5,2.4-1.4,3.2
	c-0.9,0.8-2,1.3-3.3,1.3s-2.4-0.4-3.3-1.3c-0.9-0.9-1.3-1.9-1.3-3.2c0-1.3,0.4-2.4,1.3-3.2c0.9-0.9,2-1.3,3.3-1.3s2.4,0.4,3.3,1.3
	C378.4,477.6,378.8,478.7,378.8,480z M377.7,528h-7v-35.3h7V528z M395,492.7c0.1,0.9,0.2,1.9,0.2,3c0,1.1,0.1,2.1,0.1,2.8h0.2
	c0.4-0.9,1.1-1.8,1.8-2.6c0.8-0.8,1.6-1.5,2.6-2.2c1-0.6,2.1-1.1,3.3-1.4c1.2-0.3,2.4-0.5,3.7-0.5c2.3,0,4.3,0.4,5.9,1.2
	c1.6,0.8,3,1.8,4.1,3.1c1.1,1.3,1.9,2.8,2.4,4.5c0.5,1.7,0.8,3.6,0.8,5.6V528h-7v-19.6c0-1.4-0.1-2.8-0.3-4.1
	c-0.2-1.3-0.6-2.4-1.2-3.4c-0.6-1-1.4-1.8-2.5-2.4c-1-0.6-2.4-0.9-4-0.9c-2.8,0-5.1,1.1-6.8,3.2s-2.6,4.9-2.6,8.5V528h-7v-27.7
	c0-0.9,0-2.2-0.1-3.7s-0.1-2.8-0.2-4H395z M450.8,492.7l8,27h0.2l8.4-27h7.4l8.6,27h0.1l8-27h7.4L487.1,528h-7.3l-8.7-26.5h-0.1
	l-8.6,26.5h-7.3l-11.8-35.3H450.8z M512.7,480c0,1.3-0.5,2.4-1.4,3.2c-0.9,0.8-2,1.3-3.3,1.3c-1.3,0-2.4-0.4-3.3-1.3
	c-0.9-0.9-1.3-1.9-1.3-3.2c0-1.3,0.4-2.4,1.3-3.2c0.9-0.9,2-1.3,3.3-1.3c1.3,0,2.4,0.4,3.3,1.3C512.2,477.6,512.7,478.7,512.7,480z
	 M511.6,528h-7v-35.3h7V528z M539.8,498.4h-9.4v18.4c0,2.1,0.4,3.7,1.2,4.6c0.8,0.9,2.1,1.4,3.8,1.4c0.6,0,1.3-0.1,2.1-0.2
	c0.7-0.1,1.4-0.3,2-0.6l0.2,5.7c-0.8,0.3-1.8,0.5-2.8,0.7c-1,0.2-2.1,0.3-3.2,0.3c-3.3,0-5.9-0.9-7.6-2.8c-1.8-1.8-2.6-4.6-2.6-8.3
	v-19.2h-6.8v-5.7h6.8v-10.1h6.9v10.1h9.4V498.4z M553.1,498.1c0.8-1.7,2.3-3.2,4.3-4.5c2-1.2,4.3-1.9,6.9-1.9c2.3,0,4.2,0.4,5.9,1.2
	c1.6,0.8,3,1.8,4.1,3.1s1.9,2.8,2.4,4.5c0.5,1.7,0.8,3.6,0.8,5.6V528h-7v-19.6c0-1.4-0.1-2.8-0.3-4.1c-0.2-1.3-0.6-2.4-1.2-3.4
	c-0.6-1-1.4-1.8-2.4-2.4c-1-0.6-2.3-0.9-4-0.9c-2.8,0-5.1,1.1-6.9,3.2c-1.8,2.1-2.7,4.9-2.7,8.5V528h-7v-56.3h7v26.4H553.1z
	 M607.9,528h-8.2l22.9-52.8h6.7L652,528h-8.4l-5.4-13h-25L607.9,528z M615.8,508.6h19.7l-9.8-24.7L615.8,508.6z M682,528
	c-0.1-0.9-0.2-1.9-0.2-3c0-1.1-0.1-2.1-0.1-2.8h-0.1c-0.9,1.9-2.4,3.5-4.5,4.8c-2.1,1.3-4.5,2-7,2c-2.3,0-4.3-0.4-5.9-1.1
	c-1.7-0.7-3-1.8-4.1-3.1c-1.1-1.3-1.9-2.8-2.4-4.6c-0.5-1.7-0.8-3.6-0.8-5.6v-21.9h7v19.5c0,1.4,0.1,2.8,0.3,4.1s0.6,2.5,1.2,3.5
	c0.6,1,1.4,1.8,2.5,2.4c1,0.6,2.4,0.9,4,0.9c2.8,0,5.1-1.1,6.9-3.2c1.7-2.1,2.6-4.9,2.6-8.5v-18.8h7v27.7c0,0.9,0,2.2,0.1,3.7
	c0,1.5,0.1,2.8,0.2,3.9H682z M716.5,498.4h-9.4v18.4c0,2.1,0.4,3.7,1.2,4.6c0.8,0.9,2.1,1.4,3.8,1.4c0.6,0,1.3-0.1,2.1-0.2
	c0.7-0.1,1.4-0.3,2-0.6l0.2,5.7c-0.8,0.3-1.8,0.5-2.8,0.7c-1,0.2-2.1,0.3-3.2,0.3c-3.3,0-5.9-0.9-7.6-2.8c-1.8-1.8-2.6-4.6-2.6-8.3
	v-19.2h-6.8v-5.7h6.8v-10.1h6.9v10.1h9.4V498.4z M758.3,510.3c0,2.7-0.5,5.2-1.5,7.5c-1,2.3-2.3,4.3-4,5.9c-1.7,1.7-3.7,3-6.1,3.9
	c-2.3,0.9-4.8,1.4-7.5,1.4c-2.7,0-5.2-0.5-7.5-1.4c-2.3-0.9-4.3-2.2-6-3.9c-1.7-1.7-3-3.6-4-5.9c-1-2.3-1.4-4.8-1.4-7.5
	c0-2.7,0.5-5.2,1.4-7.5c1-2.3,2.3-4.2,4-5.9c1.7-1.6,3.7-2.9,6-3.8c2.3-0.9,4.8-1.4,7.5-1.4c2.7,0,5.2,0.5,7.5,1.4
	c2.3,0.9,4.4,2.2,6.1,3.8c1.7,1.6,3.1,3.6,4,5.9C757.8,505.1,758.3,507.6,758.3,510.3z M751,510.3c0-1.7-0.3-3.3-0.8-4.8
	c-0.5-1.5-1.3-2.9-2.3-4c-1-1.2-2.2-2.1-3.7-2.8c-1.5-0.7-3.2-1-5-1c-1.9,0-3.6,0.4-5,1c-1.5,0.7-2.7,1.6-3.7,2.8
	c-1,1.2-1.8,2.5-2.3,4c-0.5,1.5-0.8,3.1-0.8,4.8c0,1.7,0.3,3.3,0.8,4.8c0.5,1.5,1.3,2.9,2.3,4.1c1,1.2,2.2,2.1,3.7,2.8
	c1.5,0.7,3.2,1,5,1c1.9,0,3.6-0.3,5-1c1.5-0.7,2.7-1.6,3.7-2.8c1-1.2,1.8-2.6,2.3-4.1C750.7,513.6,751,512,751,510.3z M777.8,493.7
	c2-1.3,4.3-2,7-2c2.4,0,4.5,0.5,6.4,1.6s3.4,2.9,4.5,5.4c1.2-2.3,2.9-4,5-5.3c2.1-1.2,4.5-1.8,7-1.8c2.3,0,4.2,0.4,5.9,1.2
	c1.6,0.8,3,1.8,4.1,3.1s1.9,2.8,2.4,4.5c0.5,1.7,0.8,3.6,0.8,5.6V528h-7v-19.6c0-1.4-0.1-2.8-0.4-4.1c-0.2-1.3-0.7-2.4-1.3-3.4
	c-0.6-1-1.4-1.8-2.4-2.4c-1-0.6-2.3-0.9-3.8-0.9c-1.6,0-3,0.3-4.1,1c-1.1,0.7-2.1,1.5-2.8,2.6c-0.7,1.1-1.2,2.3-1.6,3.6
	c-0.3,1.3-0.5,2.7-0.5,4.1V528h-7v-21c0-1.4-0.1-2.7-0.4-3.8c-0.2-1.1-0.7-2.1-1.3-2.9c-0.6-0.8-1.4-1.5-2.3-1.9
	c-0.9-0.5-2.1-0.7-3.5-0.7c-2.6,0-4.7,1.1-6.4,3.2s-2.6,4.9-2.6,8.5V528h-7v-27.7c0-0.9,0-2.2-0.1-3.7s-0.1-2.8-0.2-4h6.6
	c0.1,0.9,0.2,1.9,0.2,3c0,1.1,0.1,2.1,0.1,2.8h0.2C774.5,496.6,775.9,495,777.8,493.7z M853.5,505.2c0-2.6-0.8-4.6-2.4-5.9
	c-1.6-1.3-3.7-1.9-6.3-1.9c-2,0-3.9,0.4-5.6,1.2c-1.8,0.8-3.2,1.8-4.4,2.9L831,497c1.7-1.6,3.9-2.9,6.4-3.9c2.5-0.9,5.2-1.4,8.1-1.4
	c2.5,0,4.7,0.4,6.6,1.1c1.9,0.7,3.4,1.7,4.6,2.9c1.2,1.2,2.1,2.7,2.7,4.4c0.6,1.7,0.9,3.5,0.9,5.4V521c0,1.2,0,2.5,0.1,3.8
	c0.1,1.3,0.2,2.4,0.4,3.2h-6.3c-0.4-1.7-0.6-3.4-0.6-5.1h-0.2c-1.3,1.9-2.9,3.4-4.9,4.4c-2,1-4.3,1.6-7,1.6c-1.4,0-2.8-0.2-4.4-0.6
	c-1.5-0.4-2.9-1-4.1-1.8c-1.2-0.8-2.3-2-3.1-3.4c-0.8-1.4-1.2-3.1-1.2-5.1c0-2.7,0.7-4.8,2.2-6.4c1.4-1.6,3.3-2.8,5.7-3.6
	s5-1.4,7.9-1.6c2.9-0.2,5.9-0.4,8.9-0.4V505.2z M851.8,511.2c-1.7,0-3.5,0.1-5.4,0.2c-1.9,0.1-3.6,0.4-5.1,0.9
	c-1.5,0.4-2.8,1.1-3.8,2c-1,0.9-1.5,2.1-1.5,3.6c0,1,0.2,1.9,0.6,2.6c0.4,0.7,1,1.3,1.7,1.7c0.7,0.4,1.5,0.8,2.3,0.9
	c0.8,0.2,1.7,0.3,2.6,0.3c3.3,0,5.8-1,7.6-2.9c1.8-2,2.7-4.4,2.7-7.4v-1.9H851.8z M888,498.4h-9.4v18.4c0,2.1,0.4,3.7,1.2,4.6
	c0.8,0.9,2.1,1.4,3.8,1.4c0.6,0,1.3-0.1,2.1-0.2c0.7-0.1,1.4-0.3,2-0.6l0.2,5.7c-0.8,0.3-1.8,0.5-2.8,0.7c-1,0.2-2.1,0.3-3.2,0.3
	c-3.3,0-5.9-0.9-7.6-2.8c-1.8-1.8-2.7-4.6-2.7-8.3v-19.2h-6.8v-5.7h6.8v-10.1h6.9v10.1h9.4V498.4z M902.1,480c0,1.3-0.5,2.4-1.4,3.2
	c-0.9,0.8-2,1.3-3.3,1.3s-2.4-0.4-3.3-1.3c-0.9-0.9-1.3-1.9-1.3-3.2c0-1.3,0.4-2.4,1.3-3.2c0.9-0.9,2-1.3,3.3-1.3s2.4,0.4,3.3,1.3
	C901.7,477.6,902.1,478.7,902.1,480z M901,528h-7v-35.3h7V528z M936.7,501.7c-0.7-1.1-1.9-2.1-3.4-2.9c-1.5-0.8-3.1-1.2-4.8-1.2
	c-1.8,0-3.5,0.4-4.9,1c-1.4,0.7-2.6,1.6-3.6,2.8c-1,1.2-1.7,2.5-2.3,4.1c-0.5,1.5-0.8,3.2-0.8,4.8c0,1.7,0.3,3.3,0.8,4.8
	c0.5,1.5,1.3,2.9,2.3,4.1c1,1.2,2.2,2.1,3.7,2.8c1.4,0.7,3.1,1,4.9,1c1.8,0,3.4-0.3,4.9-1c1.5-0.7,2.7-1.6,3.6-2.8l4.7,4.2
	c-1.5,1.7-3.4,3.1-5.6,4.1c-2.2,1-4.8,1.5-7.6,1.5c-2.7,0-5.3-0.4-7.6-1.3c-2.3-0.9-4.3-2.2-6-3.8c-1.7-1.6-3-3.6-4-5.9
	c-1-2.3-1.5-4.8-1.5-7.7c0-2.8,0.5-5.3,1.4-7.6c0.9-2.3,2.3-4.2,3.9-5.9c1.7-1.6,3.7-2.9,6-3.8c2.3-0.9,4.8-1.3,7.5-1.3
	c2.5,0,5,0.5,7.4,1.5c2.5,1,4.4,2.4,5.8,4.3L936.7,501.7z"/>
</svg>
