<?xml version="1.0" encoding="utf-8"?>
<!-- Generator: Adobe Illustrator 18.1.0, SVG Export Plug-In . SVG Version: 6.00 Build 0)  -->
<!DOCTYPE svg PUBLIC "-//W3C//DTD SVG 1.1//EN" "http://www.w3.org/Graphics/SVG/1.1/DTD/svg11.dtd">
<svg version="1.1" id="Layer_1" xmlns="http://www.w3.org/2000/svg" xmlns:xlink="http://www.w3.org/1999/xlink" x="0px" y="0px"
	 viewBox="0 424.5 1000 150.9" enable-background="new 0 424.5 1000 150.9" xml:space="preserve">
<path fill="#5DBC33" d="M975.8,424.5H193.9l0,0H24.2C10.9,424.5,0,435.8,0,449.7v100.6c0,13.8,10.9,25.2,24.2,25.2h169.7l0,0h781.8
	c13.3,0,24.2-11.3,24.2-25.2V449.7C1000,435.8,989.1,424.5,975.8,424.5z"/>
<path fill="#FFFFFF" d="M319.3,522L319.3,522c-1.3,0-2.5-0.5-3.4-1.5L300.1,504l6.8-6.5l12.3,13l29.7-31.1l6.8,6.5l-33.1,34.6
	C321.8,521.5,320.5,522,319.3,522z M438.3,487.8c-1.5-2-3.3-3.5-5.5-4.5c-2.2-1-4.4-1.5-6.8-1.5c-2.7,0-5.2,0.6-7.5,1.7
	c-2.3,1.1-4.3,2.6-5.9,4.5c-1.7,1.9-3,4-3.9,6.5c-0.9,2.5-1.4,5-1.4,7.7c0,2.9,0.5,5.5,1.4,8c0.9,2.5,2.2,4.6,3.8,6.4
	c1.6,1.8,3.6,3.3,5.9,4.3c2.3,1.1,4.8,1.6,7.6,1.6c3,0,5.7-0.6,8-1.8c2.4-1.2,4.4-2.9,6.2-5.1l4.4,3.7c-2.2,3-4.9,5.1-8,6.5
	c-3.1,1.4-6.6,2.1-10.6,2.1c-3.5,0-6.8-0.6-9.8-1.9c-3-1.3-5.7-3.1-7.9-5.4c-2.2-2.3-4-5-5.3-8.1c-1.3-3.1-1.9-6.6-1.9-10.3
	c0-3.6,0.6-7,1.8-10.1c1.2-3.1,2.9-5.9,5.2-8.2c2.2-2.3,4.8-4.1,7.9-5.5c3-1.3,6.4-2,10-2c3.3,0,6.5,0.6,9.6,1.8
	c3.1,1.2,5.6,3.2,7.7,5.9L438.3,487.8z M449,510.5c0-2.5,0.4-4.8,1.3-6.9c0.9-2.1,2.1-3.9,3.6-5.4c1.5-1.5,3.3-2.7,5.5-3.5
	c2.1-0.8,4.4-1.2,6.9-1.2c2.5,0,4.8,0.4,6.9,1.2s3.9,2,5.5,3.5s2.7,3.3,3.6,5.4c0.9,2.1,1.3,4.4,1.3,6.9s-0.4,4.8-1.3,6.9
	c-0.9,2.1-2.1,3.9-3.6,5.4c-1.5,1.5-3.3,2.7-5.5,3.5c-2.1,0.8-4.4,1.2-6.9,1.2c-2.5,0-4.8-0.4-6.9-1.2c-2.1-0.8-3.9-2-5.5-3.5
	c-1.5-1.5-2.7-3.3-3.6-5.4C449.5,515.4,449,513,449,510.5z M454.9,510.5c0,1.7,0.3,3.3,0.8,4.7c0.5,1.4,1.3,2.7,2.3,3.8
	c1,1.1,2.2,1.9,3.6,2.6c1.4,0.6,3,0.9,4.7,0.9c1.8,0,3.3-0.3,4.7-0.9c1.4-0.6,2.6-1.5,3.6-2.6c1-1.1,1.8-2.4,2.3-3.8
	c0.5-1.5,0.8-3,0.8-4.7c0-1.7-0.3-3.3-0.8-4.7c-0.5-1.5-1.3-2.7-2.3-3.8c-1-1.1-2.2-1.9-3.6-2.6c-1.4-0.6-3-0.9-4.7-0.9
	c-1.8,0-3.3,0.3-4.7,0.9c-1.4,0.6-2.6,1.5-3.6,2.6c-1,1.1-1.8,2.4-2.3,3.8C455.1,507.2,454.9,508.8,454.9,510.5z M492,502
	c0-1.5,0-2.9-0.1-4.2s-0.1-2.5-0.1-3.5h5.1c0,0.9,0,1.8,0.1,2.6c0,0.9,0.1,1.8,0.1,2.7h0.1c0.4-0.8,0.9-1.5,1.6-2.3
	c0.7-0.7,1.5-1.4,2.4-2c0.9-0.6,2-1,3.1-1.4c1.2-0.4,2.4-0.5,3.7-0.5c2.1,0,3.9,0.3,5.5,1c1.5,0.6,2.8,1.5,3.8,2.7
	c1,1.2,1.8,2.5,2.2,4.2c0.5,1.6,0.7,3.4,0.7,5.4v20h-5.4v-19.4c0-2.7-0.6-4.9-1.8-6.4c-1.2-1.6-3.1-2.4-5.6-2.4
	c-1.8,0-3.3,0.3-4.5,0.9c-1.3,0.6-2.3,1.4-3.1,2.6c-0.8,1.1-1.4,2.4-1.8,3.9c-0.4,1.5-0.6,3.2-0.6,5v15.8H492V502z M530.5,502
	c0-1.5,0-2.9-0.1-4.2c-0.1-1.3-0.1-2.5-0.1-3.5h5.1c0,0.9,0,1.8,0.1,2.6c0,0.9,0.1,1.8,0.1,2.7h0.1c0.4-0.8,0.9-1.5,1.6-2.3
	c0.7-0.7,1.5-1.4,2.4-2c0.9-0.6,2-1,3.1-1.4c1.1-0.4,2.4-0.5,3.7-0.5c2.1,0,4,0.3,5.5,1c1.5,0.6,2.8,1.5,3.8,2.7
	c1,1.2,1.8,2.5,2.2,4.2c0.5,1.6,0.7,3.4,0.7,5.4v20h-5.4v-19.4c0-2.7-0.6-4.9-1.8-6.4c-1.2-1.6-3.1-2.4-5.6-2.4
	c-1.8,0-3.3,0.3-4.5,0.9c-1.3,0.6-2.3,1.4-3.1,2.6c-0.8,1.1-1.4,2.4-1.8,3.9c-0.4,1.5-0.6,3.2-0.6,5v15.8h-5.4V502z M597.9,520.8
	c-1.9,2.5-4.1,4.2-6.4,5.2c-2.3,1-5,1.5-8,1.5c-2.5,0-4.8-0.4-6.8-1.3c-2-0.9-3.8-2.1-5.2-3.6s-2.5-3.3-3.2-5.4
	c-0.8-2.1-1.1-4.3-1.1-6.6c0-2.5,0.4-4.8,1.2-6.9c0.8-2.1,2-3.9,3.5-5.4s3.2-2.7,5.3-3.5c2-0.8,4.2-1.2,6.6-1.2
	c2.3,0,4.3,0.4,6.2,1.1s3.5,1.9,4.9,3.3c1.4,1.4,2.4,3.2,3.2,5.3c0.7,2.1,1.1,4.5,1.1,7.2v1.7h-26.2c0.1,1.4,0.4,2.7,1,4
	c0.6,1.3,1.3,2.4,2.2,3.3c0.9,0.9,2,1.7,3.2,2.2c1.2,0.6,2.6,0.8,4.1,0.8c2.4,0,4.3-0.4,5.9-1.2c1.6-0.8,3.1-2.1,4.4-3.7
	L597.9,520.8z M593.2,507.6c-0.1-2.8-1-5-2.7-6.6c-1.7-1.7-4.1-2.5-7.1-2.5s-5.4,0.8-7.3,2.5c-1.8,1.7-3,3.9-3.3,6.6H593.2z
	 M630.4,502.4c-1.2-1.4-2.4-2.4-3.7-3c-1.3-0.6-2.8-0.9-4.4-0.9c-1.8,0-3.4,0.3-4.8,0.9c-1.4,0.6-2.5,1.5-3.4,2.6
	c-0.9,1.1-1.6,2.4-2,3.8c-0.5,1.4-0.7,3-0.7,4.7c0,1.7,0.3,3.2,0.8,4.7c0.5,1.4,1.3,2.7,2.2,3.8c0.9,1.1,2.1,2,3.4,2.6
	c1.3,0.6,2.8,0.9,4.5,0.9c3.5,0,6.3-1.3,8.2-4l4,3.8c-1.6,1.8-3.4,3.1-5.5,3.9c-2.1,0.8-4.4,1.2-6.7,1.2c-2.5,0-4.8-0.4-6.9-1.2
	c-2.1-0.8-3.8-2-5.3-3.5c-1.5-1.5-2.6-3.3-3.4-5.4c-0.8-2.1-1.2-4.4-1.2-6.8c0-2.4,0.4-4.7,1.2-6.8c0.8-2.1,1.9-3.9,3.4-5.4
	c1.5-1.5,3.2-2.7,5.3-3.6c2.1-0.9,4.3-1.3,6.8-1.3c2.4,0,4.7,0.4,6.8,1.2c2.1,0.8,4,2.1,5.6,3.9L630.4,502.4z M658.5,498.9h-9.6
	v16.2c0,1.1,0,2,0.1,2.9c0,0.9,0.2,1.7,0.6,2.4c0.3,0.7,0.8,1.2,1.4,1.6c0.6,0.4,1.6,0.6,2.8,0.6c0.8,0,1.6-0.1,2.4-0.3
	s1.6-0.5,2.4-0.8l0.2,4.9c-0.9,0.4-1.9,0.7-3.1,0.9s-2.2,0.3-3.2,0.3c-1.9,0-3.5-0.3-4.6-0.8c-1.2-0.5-2.1-1.2-2.7-2.1
	s-1.1-2.1-1.3-3.4c-0.2-1.4-0.3-2.9-0.3-4.5v-17.8h-7.1v-4.6h7.1v-9.2h5.4v9.2h9.6V498.9z M694,520.8c-1.9,2.5-4.1,4.2-6.4,5.2
	c-2.3,1-5,1.5-8,1.5c-2.5,0-4.8-0.4-6.8-1.3c-2-0.9-3.7-2.1-5.2-3.6s-2.5-3.3-3.2-5.4c-0.8-2.1-1.1-4.3-1.1-6.6
	c0-2.5,0.4-4.8,1.2-6.9c0.8-2.1,2-3.9,3.5-5.4c1.5-1.5,3.2-2.7,5.3-3.5c2-0.8,4.2-1.2,6.6-1.2c2.3,0,4.3,0.4,6.2,1.1
	s3.5,1.9,4.9,3.3c1.4,1.4,2.4,3.2,3.1,5.3c0.7,2.1,1.1,4.5,1.1,7.2v1.7H669c0.1,1.4,0.4,2.7,1,4c0.6,1.3,1.3,2.4,2.2,3.3
	s2,1.7,3.3,2.2c1.2,0.6,2.6,0.8,4.1,0.8c2.4,0,4.3-0.4,6-1.2c1.6-0.8,3.1-2.1,4.4-3.7L694,520.8z M689.4,507.6c-0.1-2.8-1-5-2.7-6.6
	c-1.7-1.7-4.1-2.5-7.1-2.5s-5.4,0.8-7.3,2.5c-1.8,1.7-3,3.9-3.3,6.6H689.4z M730.5,521h-0.1c-1,1.8-2.6,3.4-4.8,4.7
	c-2.2,1.3-4.7,1.9-7.6,1.9c-2.3,0-4.4-0.4-6.4-1.3c-2-0.9-3.7-2-5.2-3.6c-1.5-1.5-2.6-3.3-3.4-5.4c-0.8-2.1-1.2-4.3-1.2-6.8
	c0-2.4,0.4-4.7,1.2-6.8c0.8-2.1,2-3.9,3.5-5.4c1.5-1.5,3.3-2.7,5.4-3.6c2.1-0.9,4.4-1.3,7-1.3c2.4,0,4.5,0.5,6.5,1.5
	c2,1,3.7,2.3,5.2,4.1h0.1v-24.6h5.4v52.3h-5.4V521z M730.5,510.5c0-1.7-0.3-3.3-0.8-4.7c-0.5-1.5-1.3-2.7-2.3-3.8
	c-1-1.1-2.2-1.9-3.6-2.6c-1.4-0.6-3-0.9-4.7-0.9c-1.8,0-3.3,0.3-4.7,0.9c-1.4,0.6-2.6,1.5-3.6,2.6c-1,1.1-1.8,2.4-2.3,3.8
	c-0.5,1.4-0.8,3-0.8,4.7c0,1.7,0.3,3.3,0.8,4.7c0.5,1.4,1.3,2.7,2.3,3.8c1,1.1,2.2,1.9,3.6,2.6c1.4,0.6,3,0.9,4.7,0.9
	c1.8,0,3.3-0.3,4.7-0.9c1.4-0.6,2.6-1.5,3.6-2.6c1-1.1,1.8-2.4,2.3-3.8C730.2,513.8,730.5,512.2,730.5,510.5z"/>
<path fill="#FFFFFF" d="M50.3,477.8c0-3.7,2.7-8.3,5.9-10.2l38.5-22.3c3.2-1.9,8.5-1.9,11.8,0l38.5,22.3c3.2,1.9,5.9,6.5,5.9,10.2
	v44.5c0,3.7-2.7,8.3-5.9,10.2l-38.5,22.2c-3.2,1.9-8.5,1.9-11.8,0l-38.5-22.2c-3.2-1.9-5.9-6.5-5.9-10.2V477.8z"/>
<path fill="#5DBC33" d="M116.7,523.9l-3.2-6.5H87.7l-3.2,6.5H69.2l25.3-51.6c1.4-2.8,3.6-4.2,6.2-4.2c2.5,0,4.8,1.5,6.2,4.2
	l25.2,51.7C132,523.9,116.7,523.9,116.7,523.9z M107.5,505.3l-6.9-14.3l-6.9,14.3H107.5z"/>
<path fill="#DEF0D6" d="M121.3,517.6l-20.7-42v11.6l11.8,24.2H83l17.6-35.8v-5.8c-2.3,0.2-3.5,1.4-4.6,3.3l-24,49.1h11.5l-3.5-4.5
	l3.1-6.4l3.6,4.5h27.9l3.2,6.4h11.6L121.3,517.6z"/>
</svg>
