<?xml version="1.0" encoding="utf-8"?>
<!-- Generator: Adobe Illustrator 18.1.0, SVG Export Plug-In . SVG Version: 6.00 Build 0)  -->
<!DOCTYPE svg PUBLIC "-//W3C//DTD SVG 1.1//EN" "http://www.w3.org/Graphics/SVG/1.1/DTD/svg11.dtd">
<svg version="1.1" id="Layer_1" xmlns="http://www.w3.org/2000/svg" xmlns:xlink="http://www.w3.org/1999/xlink" x="0px" y="0px"
	 viewBox="65.2 15.2 869.6 969.5" enable-background="new 65.2 15.2 869.6 969.5" xml:space="preserve">
<path fill="#FFFFFF" d="M440.5,545.4h119.1L500,422.2L440.5,545.4z M883.9,219.7l-333-192.3c-28-16.2-73.8-16.2-101.8,0l-333,192.3
	c-28,16.2-50.9,55.9-50.9,88.2v384.4c0,32.3,22.9,72,50.9,88.2l333,192.3c28,16.2,73.8,16.2,101.8,0l333-192.3
	c28-16.1,50.9-55.8,50.9-88.2V307.8C934.8,275.5,911.9,235.8,883.9,219.7z M638.6,706.8l-27.7-55.9H388.6l-27.3,55.9H228.6
	l218.2-445.9c12.3-24.6,31.4-36.4,53.2-36.4c21.8,0,41.8,13.2,53.2,35.9l218.2,446.4H638.6z"/>
<path opacity="0.4" fill="#FFFFFF" enable-background="new    " d="M678.6,651.8L500,288.6v100l101.8,209.1H347.7L500,288.6v-50
	c-19.5,1.4-30.4,11.8-40,28.7L252.3,691.3h99.6l-30.5-38.6l26.4-55l31.4,38.6h241.4l27.3,55h100L678.6,651.8z"/>
</svg>
