<?xml version="1.0" encoding="utf-8"?>
<!-- Generator: Adobe Illustrator 18.1.0, SVG Export Plug-In . SVG Version: 6.00 Build 0)  -->
<!DOCTYPE svg PUBLIC "-//W3C//DTD SVG 1.1//EN" "http://www.w3.org/Graphics/SVG/1.1/DTD/svg11.dtd">
<svg version="1.1" id="Layer_1" xmlns="http://www.w3.org/2000/svg" xmlns:xlink="http://www.w3.org/1999/xlink" x="0px" y="0px"
	 viewBox="0 424.5 1000 150.9" enable-background="new 0 424.5 1000 150.9" xml:space="preserve">
<path fill="#257FB9" d="M975.8,424.5H193.9H24.2C10.9,424.5,0,435.8,0,449.7v100.6c0,13.8,10.9,25.2,24.2,25.2h169.7h781.8
	c13.3,0,24.2-11.3,24.2-25.2V449.7C1000,435.8,989.1,424.5,975.8,424.5z"/>
<path fill="#FFFFFF" d="M252.2,517.9c-1.9,2.6-4.5,4.8-7.5,6.4c-3.1,1.6-6.8,2.5-11.1,2.5c-3.7,0-7.2-0.6-10.3-1.9
	c-3.2-1.3-5.9-3-8.2-5.3c-2.3-2.3-4.1-5-5.4-8.2c-1.3-3.2-1.9-6.6-1.9-10.4c0-3.8,0.7-7.3,2-10.5c1.3-3.2,3.1-5.9,5.5-8.1
	c2.3-2.2,5.1-4,8.3-5.2c3.2-1.2,6.6-1.9,10.4-1.9c1.7,0,3.3,0.2,5.1,0.5c1.7,0.3,3.3,0.8,4.9,1.5c1.6,0.6,3,1.4,4.3,2.4
	c1.3,0.9,2.4,2,3.3,3.3l-5.4,4.2c-1.2-1.7-2.9-3-5.1-4.1c-2.2-1.1-4.6-1.6-7.1-1.6c-2.9,0-5.4,0.5-7.7,1.6c-2.3,1-4.2,2.5-5.8,4.3
	c-1.6,1.8-2.9,3.9-3.7,6.3c-0.9,2.4-1.3,4.9-1.3,7.6c0,2.8,0.4,5.3,1.3,7.8c0.9,2.4,2.1,4.5,3.7,6.3s3.5,3.2,5.8,4.2
	s4.8,1.5,7.6,1.5c2.8,0,5.3-0.6,7.5-1.7c2.3-1.1,4.1-2.7,5.6-4.8L252.2,517.9z M290.9,509.1c0,2.5-0.4,4.9-1.3,7
	c-0.9,2.1-2.1,4-3.7,5.5c-1.6,1.5-3.5,2.7-5.6,3.6c-2.2,0.9-4.5,1.3-7,1.3c-2.5,0-4.8-0.4-7-1.3c-2.2-0.9-4-2.1-5.6-3.6
	c-1.6-1.5-2.8-3.4-3.7-5.5c-0.9-2.1-1.4-4.5-1.4-7c0-2.5,0.5-4.9,1.4-7c0.9-2.1,2.1-3.9,3.7-5.4c1.6-1.5,3.4-2.7,5.6-3.6
	s4.5-1.3,7-1.3c2.5,0,4.8,0.4,7,1.3c2.2,0.9,4,2,5.6,3.6c1.6,1.5,2.8,3.3,3.7,5.4C290.4,504.2,290.9,506.5,290.9,509.1z
	 M284.1,509.1c0-1.6-0.2-3.1-0.7-4.5c-0.5-1.4-1.2-2.7-2.1-3.8c-0.9-1.1-2.1-1.9-3.4-2.6c-1.4-0.6-2.9-1-4.7-1s-3.3,0.3-4.7,1
	c-1.4,0.6-2.5,1.5-3.4,2.6s-1.6,2.3-2.1,3.8s-0.7,2.9-0.7,4.5c0,1.6,0.2,3.1,0.7,4.5s1.2,2.7,2.1,3.8c0.9,1.1,2.1,2,3.4,2.6
	c1.4,0.6,2.9,1,4.7,1s3.3-0.3,4.7-1c1.4-0.6,2.5-1.5,3.4-2.6c0.9-1.1,1.6-2.4,2.1-3.8C283.8,512.2,284.1,510.7,284.1,509.1z
	 M304.6,492.7c0.1,0.8,0.2,1.8,0.2,2.8c0,1,0.1,1.9,0.1,2.6h0.2c0.4-0.9,1-1.7,1.7-2.5c0.7-0.8,1.5-1.4,2.5-2c0.9-0.6,1.9-1,3-1.4
	c1.1-0.3,2.3-0.5,3.5-0.5c2.1,0,3.9,0.4,5.5,1.1c1.5,0.7,2.8,1.7,3.8,2.9c1,1.2,1.8,2.6,2.2,4.2s0.7,3.3,0.7,5.2v20.3h-6.5v-18.2
	c0-1.3-0.1-2.6-0.3-3.8c-0.2-1.2-0.6-2.3-1.1-3.2c-0.6-0.9-1.3-1.7-2.3-2.2c-1-0.6-2.2-0.8-3.7-0.8c-2.6,0-4.7,1-6.3,2.9
	c-1.6,2-2.5,4.6-2.5,7.8v17.4h-6.5v-25.7c0-0.9,0-2-0.1-3.4c0-1.4-0.1-2.6-0.2-3.7H304.6z M343.6,492.7c0.1,0.8,0.2,1.8,0.2,2.8
	c0,1,0.1,1.9,0.1,2.6h0.2c0.4-0.9,1-1.7,1.7-2.5c0.7-0.8,1.5-1.4,2.5-2c0.9-0.6,1.9-1,3-1.4c1.1-0.3,2.3-0.5,3.5-0.5
	c2.1,0,3.9,0.4,5.5,1.1c1.5,0.7,2.8,1.7,3.8,2.9c1,1.2,1.8,2.6,2.2,4.2s0.7,3.3,0.7,5.2v20.3h-6.5v-18.2c0-1.3-0.1-2.6-0.3-3.8
	c-0.2-1.2-0.6-2.3-1.1-3.2c-0.6-0.9-1.3-1.7-2.3-2.2c-1-0.6-2.2-0.8-3.7-0.8c-2.6,0-4.7,1-6.3,2.9c-1.6,2-2.5,4.6-2.5,7.8v17.4h-6.5
	v-25.7c0-0.9,0-2-0.1-3.4c0-1.4-0.1-2.6-0.2-3.7H343.6z M407.5,508.9c0,0.4,0,0.7,0,1.1c0,0.4,0,0.7-0.1,1.1h-26.1
	c0,1.4,0.4,2.7,0.9,3.9c0.6,1.2,1.4,2.3,2.3,3.2c1,0.9,2.1,1.6,3.4,2.1c1.3,0.5,2.6,0.8,4,0.8c2.2,0,4.1-0.5,5.7-1.5
	s2.9-2.1,3.8-3.5l4.6,3.7c-1.8,2.3-3.8,4-6.2,5.1c-2.4,1.1-5,1.6-7.9,1.6c-2.5,0-4.8-0.4-6.9-1.2c-2.1-0.8-3.9-2-5.5-3.5
	c-1.5-1.5-2.7-3.3-3.6-5.4c-0.9-2.1-1.3-4.5-1.3-7.1c0-2.5,0.4-4.9,1.3-7c0.9-2.1,2-4,3.6-5.5c1.5-1.5,3.3-2.7,5.4-3.6
	c2.1-0.9,4.3-1.3,6.7-1.3s4.6,0.4,6.6,1.2c2,0.8,3.6,1.9,5,3.4s2.4,3.3,3.2,5.4S407.5,506.2,407.5,508.9z M400.9,506.2
	c0-1.3-0.3-2.5-0.7-3.6c-0.4-1.1-1-2.1-1.7-2.9c-0.8-0.8-1.7-1.5-2.8-2c-1.1-0.5-2.5-0.7-4-0.7c-1.4,0-2.7,0.2-3.9,0.7
	c-1.2,0.5-2.3,1.1-3.2,2c-0.9,0.8-1.6,1.8-2.2,2.9s-0.9,2.3-1,3.6H400.9z M438.3,501c-0.7-1.1-1.7-2-3.1-2.7
	c-1.4-0.7-2.9-1.1-4.4-1.1c-1.7,0-3.2,0.3-4.5,1c-1.3,0.6-2.4,1.5-3.4,2.6c-0.9,1.1-1.6,2.3-2.1,3.8c-0.5,1.4-0.7,2.9-0.7,4.5
	c0,1.6,0.2,3.1,0.7,4.5c0.5,1.4,1.2,2.7,2.1,3.8c0.9,1.1,2.1,2,3.4,2.6s2.9,1,4.6,1c1.7,0,3.2-0.3,4.5-1c1.4-0.6,2.5-1.5,3.4-2.6
	l4.4,3.9c-1.4,1.6-3.1,2.9-5.2,3.8c-2.1,0.9-4.4,1.3-7.1,1.3c-2.5,0-4.9-0.4-7-1.2c-2.1-0.8-4-2-5.6-3.5c-1.6-1.5-2.8-3.3-3.7-5.4
	c-0.9-2.1-1.4-4.5-1.4-7.1c0-2.6,0.4-4.9,1.3-7.1c0.9-2.1,2.1-3.9,3.7-5.5c1.6-1.5,3.4-2.7,5.6-3.5c2.1-0.8,4.5-1.2,7-1.2
	c2.3,0,4.6,0.5,6.9,1.4c2.3,0.9,4.1,2.3,5.4,4L438.3,501z M467.5,498.1h-8.7v17c0,2,0.4,3.4,1.1,4.2c0.7,0.8,1.9,1.3,3.5,1.3
	c0.6,0,1.2-0.1,1.9-0.2c0.7-0.1,1.3-0.3,1.9-0.6l0.2,5.3c-0.8,0.3-1.7,0.5-2.6,0.7c-0.9,0.2-1.9,0.2-2.9,0.2c-3.1,0-5.5-0.9-7.1-2.6
	c-1.6-1.7-2.5-4.3-2.5-7.7v-17.8h-6.3v-5.3h6.3v-9.4h6.4v9.4h8.7V498.1z M492.9,492.7l7.4,25h0.1l7.8-25h6.8l8,25h0.1l7.4-25h6.8
	l-10.9,32.8h-6.8l-8.1-24.6h-0.1l-8,24.6h-6.8l-10.9-32.8H492.9z M550.4,480.9c0,1.2-0.4,2.2-1.3,3c-0.8,0.8-1.9,1.2-3.1,1.2
	c-1.2,0-2.2-0.4-3-1.2c-0.8-0.8-1.2-1.8-1.2-2.9c0-1.2,0.4-2.2,1.2-3c0.8-0.8,1.8-1.2,3-1.2c1.2,0,2.2,0.4,3.1,1.2
	C549.9,478.7,550.4,479.7,550.4,480.9z M549.3,525.5h-6.5v-32.8h6.5V525.5z M575.5,498.1h-8.7v17c0,2,0.4,3.4,1.1,4.2
	c0.7,0.8,1.9,1.3,3.5,1.3c0.6,0,1.2-0.1,1.9-0.2c0.7-0.1,1.3-0.3,1.9-0.6l0.2,5.3c-0.8,0.3-1.7,0.5-2.6,0.7
	c-0.9,0.2-1.9,0.2-2.9,0.2c-3.1,0-5.5-0.9-7.1-2.6c-1.6-1.7-2.5-4.3-2.5-7.7v-17.8h-6.3v-5.3h6.3v-9.4h6.4v9.4h8.7V498.1z
	 M587.9,497.7c0.8-1.6,2.1-3,4-4.2c1.9-1.2,4-1.7,6.4-1.7c2.1,0,3.9,0.4,5.5,1.1c1.5,0.7,2.8,1.7,3.8,2.9c1,1.2,1.8,2.6,2.3,4.2
	c0.5,1.6,0.7,3.3,0.7,5.2v20.3H604v-18.2c0-1.3-0.1-2.6-0.3-3.8c-0.2-1.2-0.6-2.3-1.1-3.2c-0.6-0.9-1.3-1.7-2.2-2.2
	s-2.2-0.8-3.7-0.8c-2.6,0-4.7,1-6.4,2.9c-1.7,2-2.5,4.6-2.5,7.9v17.4h-6.5v-52.3h6.5v24.5H587.9z M634.3,525.5h-7.6l21.2-49h6.2
	l21,49h-7.7l-5-12h-23.2L634.3,525.5z M641.7,507.5H660l-9.1-23L641.7,507.5z M703.1,525.5c-0.1-0.8-0.2-1.8-0.2-2.8
	c0-1-0.1-1.9-0.1-2.6h-0.1c-0.8,1.8-2.2,3.2-4.2,4.5c-2,1.2-4.1,1.8-6.5,1.8c-2.1,0-4-0.3-5.5-1c-1.5-0.7-2.8-1.6-3.8-2.9
	c-1-1.2-1.7-2.6-2.2-4.3c-0.5-1.6-0.7-3.3-0.7-5.2v-20.3h6.5v18.1c0,1.3,0.1,2.6,0.3,3.8c0.2,1.2,0.6,2.3,1.1,3.2
	c0.6,0.9,1.3,1.7,2.3,2.2c1,0.6,2.2,0.8,3.7,0.8c2.6,0,4.8-1,6.4-2.9c1.6-2,2.4-4.6,2.4-7.9v-17.4h6.5v25.7c0,0.9,0,2,0.1,3.4
	c0,1.4,0.1,2.6,0.2,3.7H703.1z M735.1,498.1h-8.7v17c0,2,0.4,3.4,1.1,4.2c0.7,0.8,1.9,1.3,3.5,1.3c0.6,0,1.2-0.1,1.9-0.2
	c0.7-0.1,1.3-0.3,1.9-0.6l0.2,5.3c-0.8,0.3-1.6,0.5-2.6,0.7c-0.9,0.2-1.9,0.2-2.9,0.2c-3.1,0-5.5-0.9-7.1-2.6
	c-1.6-1.7-2.5-4.3-2.5-7.7v-17.8h-6.3v-5.3h6.3v-9.4h6.4v9.4h8.7V498.1z M773.9,509.1c0,2.5-0.4,4.9-1.3,7c-0.9,2.1-2.1,4-3.7,5.5
	c-1.6,1.5-3.5,2.7-5.6,3.6c-2.2,0.9-4.5,1.3-7,1.3c-2.5,0-4.8-0.4-7-1.3c-2.2-0.9-4-2.1-5.6-3.6c-1.6-1.5-2.8-3.4-3.7-5.5
	c-0.9-2.1-1.4-4.5-1.4-7c0-2.5,0.5-4.9,1.4-7c0.9-2.1,2.1-3.9,3.7-5.4c1.6-1.5,3.4-2.7,5.6-3.6s4.5-1.3,7-1.3c2.5,0,4.8,0.4,7,1.3
	s4,2,5.6,3.6c1.6,1.5,2.8,3.3,3.7,5.4C773.4,504.2,773.9,506.5,773.9,509.1z M767.1,509.1c0-1.6-0.2-3.1-0.7-4.5s-1.2-2.7-2.1-3.8
	c-0.9-1.1-2.1-1.9-3.4-2.6c-1.4-0.6-2.9-1-4.7-1c-1.8,0-3.3,0.3-4.7,1c-1.4,0.6-2.5,1.5-3.4,2.6s-1.6,2.3-2.1,3.8s-0.7,2.9-0.7,4.5
	c0,1.6,0.2,3.1,0.7,4.5s1.2,2.7,2.1,3.8c0.9,1.1,2.1,2,3.4,2.6c1.4,0.6,2.9,1,4.7,1c1.8,0,3.3-0.3,4.7-1c1.4-0.6,2.5-1.5,3.4-2.6
	c0.9-1.1,1.6-2.4,2.1-3.8S767.1,510.7,767.1,509.1z M792,493.7c1.8-1.2,4-1.8,6.5-1.8c2.2,0,4.2,0.5,6,1.5c1.8,1,3.2,2.7,4.2,5.1
	c1.1-2.1,2.7-3.8,4.6-4.9c2-1.1,4.2-1.7,6.5-1.7c2.1,0,3.9,0.4,5.5,1.1c1.5,0.7,2.8,1.7,3.8,2.9c1,1.2,1.8,2.6,2.2,4.2
	s0.7,3.3,0.7,5.2v20.3h-6.5v-18.2c0-1.3-0.1-2.6-0.4-3.8c-0.2-1.2-0.6-2.3-1.2-3.2c-0.6-0.9-1.3-1.7-2.2-2.2
	c-0.9-0.6-2.1-0.8-3.5-0.8c-1.5,0-2.7,0.3-3.8,0.9c-1.1,0.6-1.9,1.4-2.6,2.4c-0.7,1-1.2,2.1-1.5,3.4c-0.3,1.2-0.4,2.5-0.4,3.8v17.7
	h-6.5V506c0-1.3-0.1-2.5-0.3-3.5c-0.2-1.1-0.6-2-1.2-2.7c-0.6-0.8-1.3-1.4-2.1-1.8c-0.9-0.4-2-0.7-3.2-0.7c-2.4,0-4.4,1-6,2.9
	c-1.6,2-2.4,4.6-2.4,7.8v17.4h-6.5v-25.7c0-0.9,0-2-0.1-3.4c0-1.4-0.1-2.6-0.2-3.7h6.2c0.1,0.8,0.2,1.8,0.2,2.8c0,1,0.1,1.9,0.1,2.6
	h0.2C788.9,496.4,790.2,494.9,792,493.7z M862.3,504.3c0-2.4-0.7-4.3-2.2-5.4c-1.5-1.2-3.4-1.8-5.9-1.8c-1.8,0-3.6,0.4-5.2,1.1
	c-1.6,0.7-3,1.6-4.1,2.7l-3.5-4.2c1.6-1.5,3.6-2.7,5.9-3.6c2.3-0.9,4.8-1.3,7.5-1.3c2.4,0,4.4,0.3,6.1,1c1.7,0.7,3.1,1.6,4.3,2.7
	c1.1,1.1,1.9,2.5,2.5,4.1c0.6,1.6,0.8,3.3,0.8,5.1V519c0,1.1,0,2.3,0.1,3.5s0.2,2.2,0.4,3h-5.9c-0.4-1.6-0.6-3.1-0.6-4.7h-0.2
	c-1.2,1.8-2.7,3.1-4.5,4.1c-1.8,1-4,1.4-6.5,1.4c-1.3,0-2.6-0.2-4-0.5c-1.4-0.4-2.7-0.9-3.8-1.7c-1.2-0.8-2.1-1.8-2.9-3.1
	s-1.1-2.9-1.1-4.8c0-2.5,0.7-4.5,2-5.9c1.3-1.5,3.1-2.6,5.3-3.3s4.6-1.3,7.3-1.5c2.7-0.2,5.5-0.4,8.2-0.4V504.3z M860.7,509.9
	c-1.6,0-3.3,0.1-5,0.2c-1.7,0.1-3.3,0.4-4.7,0.8c-1.4,0.4-2.6,1-3.5,1.9c-0.9,0.8-1.4,1.9-1.4,3.3c0,1,0.2,1.8,0.6,2.4
	c0.4,0.7,0.9,1.2,1.6,1.6c0.6,0.4,1.4,0.7,2.1,0.9c0.8,0.2,1.6,0.2,2.4,0.2c3,0,5.4-0.9,7-2.7c1.6-1.8,2.5-4.1,2.5-6.9v-1.7H860.7z
	 M894.3,498.1h-8.7v17c0,2,0.4,3.4,1.1,4.2c0.7,0.8,1.9,1.3,3.5,1.3c0.6,0,1.2-0.1,1.9-0.2c0.7-0.1,1.3-0.3,1.9-0.6l0.2,5.3
	c-0.8,0.3-1.6,0.5-2.6,0.7c-0.9,0.2-1.9,0.2-2.9,0.2c-3.1,0-5.5-0.9-7.1-2.6c-1.6-1.7-2.5-4.3-2.5-7.7v-17.8h-6.3v-5.3h6.3v-9.4h6.4
	v9.4h8.7V498.1z M907.4,480.9c0,1.2-0.4,2.2-1.3,3c-0.8,0.8-1.9,1.2-3.1,1.2c-1.2,0-2.2-0.4-3-1.2c-0.8-0.8-1.2-1.8-1.2-2.9
	c0-1.2,0.4-2.2,1.2-3c0.8-0.8,1.8-1.2,3-1.2c1.2,0,2.2,0.4,3.1,1.2C907,478.7,907.4,479.7,907.4,480.9z M906.4,525.5h-6.5v-32.8h6.5
	V525.5z M939.5,501c-0.7-1.1-1.7-2-3.1-2.7c-1.4-0.7-2.9-1.1-4.4-1.1c-1.7,0-3.2,0.3-4.5,1c-1.3,0.6-2.4,1.5-3.4,2.6
	c-0.9,1.1-1.6,2.3-2.1,3.8c-0.5,1.4-0.7,2.9-0.7,4.5c0,1.6,0.2,3.1,0.7,4.5c0.5,1.4,1.2,2.7,2.1,3.8c0.9,1.1,2.1,2,3.4,2.6
	s2.9,1,4.6,1c1.7,0,3.2-0.3,4.5-1c1.4-0.6,2.5-1.5,3.4-2.6l4.4,3.9c-1.4,1.6-3.1,2.9-5.2,3.8c-2.1,0.9-4.4,1.3-7.1,1.3
	c-2.5,0-4.9-0.4-7-1.2c-2.1-0.8-4-2-5.6-3.5c-1.6-1.5-2.8-3.3-3.7-5.4c-0.9-2.1-1.4-4.5-1.4-7.1c0-2.6,0.4-4.9,1.3-7.1
	c0.9-2.1,2.1-3.9,3.7-5.5c1.6-1.5,3.4-2.7,5.6-3.5c2.1-0.8,4.5-1.2,7-1.2c2.3,0,4.6,0.5,6.9,1.4c2.3,0.9,4.1,2.3,5.4,4L939.5,501z"
	/>
<path fill="#FFFFFF" d="M50.3,477.8c0-3.7,2.7-8.3,5.9-10.2l38.5-22.3c3.2-1.9,8.5-1.9,11.8,0l38.5,22.3c3.2,1.9,5.9,6.5,5.9,10.2
	v44.5c0,3.7-2.7,8.3-5.9,10.2l-38.5,22.2c-3.2,1.9-8.5,1.9-11.8,0l-38.5-22.2c-3.2-1.9-5.9-6.5-5.9-10.2V477.8z"/>
<path fill="#257FB9" d="M116.7,523.9l-3.2-6.5H87.7l-3.2,6.5H69.2l25.3-51.6c1.4-2.8,3.6-4.2,6.2-4.2c2.5,0,4.8,1.5,6.2,4.2
	l25.2,51.7C132,523.9,116.7,523.9,116.7,523.9z M107.5,505.3l-6.9-14.3l-6.9,14.3H107.5z"/>
<path fill="#52B6ED" d="M121.3,517.6l-20.7-42v11.6l11.8,24.2H83l17.6-35.8v-5.8c-2.3,0.2-3.5,1.4-4.6,3.3l-24,49.1h11.5l-3.5-4.5
	l3.1-6.4l3.6,4.5h27.9l3.2,6.4h11.6L121.3,517.6z"/>
</svg>
