<?xml version="1.0" encoding="utf-8"?>
<!-- Generator: Adobe Illustrator 18.1.0, SVG Export Plug-In . SVG Version: 6.00 Build 0)  -->
<!DOCTYPE svg PUBLIC "-//W3C//DTD SVG 1.1//EN" "http://www.w3.org/Graphics/SVG/1.1/DTD/svg11.dtd">
<svg version="1.1" id="Layer_1" xmlns="http://www.w3.org/2000/svg" xmlns:xlink="http://www.w3.org/1999/xlink" x="0px" y="0px"
	 viewBox="0 421.6 1000 156.9" enable-background="new 0 421.6 1000 156.9" xml:space="preserve">
<path fill="#257FB9" d="M981.1,421.6H188.7l0,0H18.9C8.5,421.6,0,430.4,0,441.2v117.6c0,10.8,8.5,19.6,18.9,19.6h169.8l0,0h792.5
	c10.4,0,18.9-8.8,18.9-19.6V441.2C1000,430.4,991.5,421.6,981.1,421.6z"/>
<path fill="#FFFFFF" d="M238.2,487.8c-1.5-2-3.3-3.4-5.4-4.4c-2.1-1-4.4-1.5-6.7-1.5c-2.7,0-5.2,0.6-7.4,1.6
	c-2.3,1.1-4.2,2.6-5.9,4.4s-2.9,4-3.8,6.5c-0.9,2.4-1.4,5-1.4,7.6c0,2.8,0.5,5.5,1.4,7.9c0.9,2.4,2.2,4.6,3.8,6.4
	c1.6,1.8,3.6,3.2,5.8,4.3s4.8,1.6,7.5,1.6c3,0,5.6-0.6,8-1.8c2.3-1.2,4.4-2.8,6.1-5l4.3,3.6c-2.2,2.9-4.8,5.1-7.9,6.5
	c-3.1,1.4-6.6,2.1-10.5,2.1c-3.5,0-6.7-0.6-9.7-1.9c-3-1.3-5.6-3.1-7.9-5.3c-2.2-2.3-4-5-5.2-8.1c-1.3-3.1-1.9-6.5-1.9-10.2
	c0-3.6,0.6-6.9,1.8-10c1.2-3.1,2.9-5.8,5.1-8.1c2.2-2.3,4.8-4.1,7.8-5.4s6.3-2,10-2c3.3,0,6.5,0.6,9.5,1.8c3,1.2,5.6,3.1,7.7,5.8
	L238.2,487.8z M249.7,510.3c0-2.5,0.4-4.8,1.3-6.9c0.9-2.1,2.1-3.8,3.6-5.3c1.5-1.5,3.3-2.6,5.4-3.5c2.1-0.8,4.4-1.2,6.9-1.2
	s4.8,0.4,6.9,1.2c2.1,0.8,3.9,2,5.4,3.5c1.5,1.5,2.7,3.3,3.6,5.3c0.9,2.1,1.3,4.3,1.3,6.9c0,2.5-0.4,4.8-1.3,6.9
	c-0.9,2.1-2.1,3.8-3.6,5.3c-1.5,1.5-3.3,2.6-5.4,3.5c-2.1,0.8-4.4,1.2-6.9,1.2s-4.8-0.4-6.9-1.2c-2.1-0.8-3.9-2-5.4-3.5
	c-1.5-1.5-2.7-3.3-3.6-5.3C250.1,515.1,249.7,512.8,249.7,510.3z M255.4,510.3c0,1.7,0.3,3.3,0.8,4.7s1.3,2.7,2.3,3.8
	s2.2,1.9,3.6,2.5c1.4,0.6,3,0.9,4.7,0.9s3.3-0.3,4.7-0.9c1.4-0.6,2.6-1.5,3.6-2.5c1-1.1,1.8-2.3,2.3-3.8s0.8-3,0.8-4.7
	c0-1.7-0.3-3.3-0.8-4.7c-0.5-1.4-1.3-2.7-2.3-3.8c-1-1.1-2.2-1.9-3.6-2.5c-1.4-0.6-3-0.9-4.7-0.9s-3.3,0.3-4.7,0.9
	c-1.4,0.6-2.6,1.5-3.6,2.5s-1.8,2.3-2.3,3.8C255.7,507,255.4,508.6,255.4,510.3z M292.3,501.8c0-1.5,0-2.8-0.1-4.1
	c-0.1-1.3-0.1-2.4-0.1-3.5h5.1c0,0.9,0,1.7,0.1,2.6c0,0.9,0.1,1.8,0.1,2.7h0.1c0.4-0.8,0.9-1.5,1.5-2.3c0.7-0.7,1.5-1.4,2.4-2
	c0.9-0.6,1.9-1,3.1-1.4c1.1-0.3,2.4-0.5,3.7-0.5c2.1,0,3.9,0.3,5.5,1c1.5,0.6,2.8,1.5,3.8,2.7c1,1.1,1.8,2.5,2.2,4.2
	c0.5,1.6,0.7,3.4,0.7,5.3v19.8h-5.4V507c0-2.7-0.6-4.8-1.8-6.4c-1.2-1.6-3-2.3-5.6-2.3c-1.7,0-3.2,0.3-4.5,0.9
	c-1.3,0.6-2.3,1.4-3.1,2.5c-0.8,1.1-1.4,2.4-1.8,3.9c-0.4,1.5-0.6,3.2-0.6,5v15.6h-5.4V501.8z M330.4,501.8c0-1.5,0-2.8-0.1-4.1
	c-0.1-1.3-0.1-2.4-0.1-3.5h5.1c0,0.9,0,1.7,0.1,2.6c0,0.9,0.1,1.8,0.1,2.7h0.1c0.4-0.8,0.9-1.5,1.5-2.3c0.7-0.7,1.5-1.4,2.4-2
	c0.9-0.6,1.9-1,3.1-1.4c1.1-0.3,2.4-0.5,3.7-0.5c2.1,0,3.9,0.3,5.5,1c1.5,0.6,2.8,1.5,3.8,2.7c1,1.1,1.8,2.5,2.2,4.2
	c0.5,1.6,0.7,3.4,0.7,5.3v19.8h-5.4V507c0-2.7-0.6-4.8-1.8-6.4c-1.2-1.6-3-2.3-5.6-2.3c-1.7,0-3.2,0.3-4.5,0.9
	c-1.3,0.6-2.3,1.4-3.1,2.5c-0.8,1.1-1.4,2.4-1.8,3.9c-0.4,1.5-0.6,3.2-0.6,5v15.6h-5.4V501.8z M397.3,520.5c-1.9,2.5-4,4.2-6.3,5.2
	c-2.3,1-4.9,1.5-8,1.5c-2.5,0-4.8-0.4-6.8-1.3c-2-0.9-3.7-2.1-5.1-3.6c-1.4-1.5-2.5-3.3-3.2-5.4c-0.8-2.1-1.1-4.3-1.1-6.6
	c0-2.5,0.4-4.7,1.2-6.8c0.8-2.1,2-3.9,3.4-5.4c1.5-1.5,3.2-2.6,5.2-3.5c2-0.8,4.2-1.2,6.6-1.2c2.2,0,4.3,0.4,6.2,1.1
	c1.9,0.8,3.5,1.9,4.8,3.3c1.3,1.4,2.4,3.2,3.1,5.3c0.7,2.1,1.1,4.5,1.1,7.1v1.7h-25.9c0.1,1.4,0.4,2.7,1,3.9
	c0.6,1.3,1.3,2.4,2.2,3.3c0.9,0.9,2,1.7,3.2,2.2c1.2,0.5,2.6,0.8,4,0.8c2.3,0,4.3-0.4,5.9-1.2c1.6-0.8,3-2,4.3-3.6L397.3,520.5z
	 M392.7,507.4c-0.1-2.7-1-4.9-2.7-6.6c-1.7-1.6-4-2.5-7-2.5c-3,0-5.4,0.8-7.2,2.5c-1.8,1.6-2.9,3.8-3.3,6.6H392.7z M429.6,502.2
	c-1.1-1.4-2.4-2.4-3.7-3c-1.3-0.6-2.8-0.9-4.4-0.9c-1.8,0-3.4,0.3-4.7,0.9c-1.4,0.6-2.5,1.5-3.4,2.6c-0.9,1.1-1.6,2.4-2,3.8
	c-0.5,1.4-0.7,3-0.7,4.6s0.3,3.2,0.8,4.6c0.5,1.4,1.3,2.7,2.2,3.8c0.9,1.1,2.1,2,3.4,2.6c1.3,0.6,2.8,0.9,4.5,0.9
	c3.5,0,6.2-1.3,8.2-4l4,3.8c-1.6,1.8-3.4,3.1-5.5,3.9c-2.1,0.8-4.3,1.2-6.7,1.2c-2.5,0-4.7-0.4-6.8-1.2c-2.1-0.8-3.8-2-5.3-3.5
	c-1.4-1.5-2.6-3.3-3.4-5.4c-0.8-2.1-1.2-4.3-1.2-6.8c0-2.4,0.4-4.7,1.2-6.7c0.8-2.1,1.9-3.8,3.4-5.4c1.5-1.5,3.2-2.7,5.2-3.5
	c2-0.8,4.3-1.3,6.8-1.3c2.4,0,4.6,0.4,6.8,1.2c2.1,0.8,4,2.1,5.6,3.8L429.6,502.2z M457.4,498.7h-9.5v16.1c0,1.1,0,2,0.1,2.9
	c0,0.9,0.2,1.7,0.6,2.3c0.3,0.7,0.8,1.2,1.4,1.6c0.6,0.4,1.6,0.6,2.7,0.6c0.8,0,1.6-0.1,2.4-0.3c0.8-0.2,1.6-0.5,2.3-0.8l0.2,4.9
	c-0.9,0.4-1.9,0.7-3,0.9c-1.1,0.2-2.2,0.3-3.2,0.3c-1.9,0-3.5-0.3-4.6-0.8c-1.1-0.5-2-1.2-2.7-2.1c-0.6-0.9-1.1-2-1.3-3.4
	s-0.3-2.8-0.3-4.5v-17.6h-7v-4.5h7v-9.1h5.4v9.1h9.5V498.7z M517.5,526.3h-5.3l-9.1-24.7H503l-8.1,24.7h-5.5l-10.4-32.1h5.9
	l7.3,24.7h0.1l8.3-24.7h5.6l8.4,24.7h0.1l7.3-24.7h5.8L517.5,526.3z M533.2,481.7c0-1,0.4-2,1.1-2.7c0.8-0.8,1.7-1.2,2.8-1.2
	s2,0.4,2.8,1.2c0.8,0.8,1.1,1.7,1.1,2.7c0,1.1-0.4,2.1-1.1,2.8s-1.7,1.1-2.8,1.1s-2.1-0.4-2.8-1.1S533.2,482.8,533.2,481.7z
	 M534.4,494.2h5.4v32.1h-5.4V494.2z M568,498.7h-9.5v16.1c0,1.1,0,2,0.1,2.9c0,0.9,0.2,1.7,0.5,2.3c0.3,0.7,0.8,1.2,1.4,1.6
	c0.6,0.4,1.6,0.6,2.7,0.6c0.8,0,1.6-0.1,2.4-0.3c0.8-0.2,1.6-0.5,2.3-0.8l0.2,4.9c-0.9,0.4-1.9,0.7-3.1,0.9
	c-1.1,0.2-2.2,0.3-3.2,0.3c-1.9,0-3.5-0.3-4.6-0.8c-1.1-0.5-2-1.2-2.7-2.1c-0.6-0.9-1.1-2-1.3-3.4c-0.2-1.3-0.3-2.8-0.3-4.5v-17.6
	h-7v-4.5h7v-9.1h5.4v9.1h9.5V498.7z M574.5,474.4h5.4v24.2h0.1c0.4-0.6,0.9-1.3,1.5-1.9c0.6-0.6,1.4-1.2,2.3-1.7
	c0.9-0.5,1.9-0.9,3-1.2c1.1-0.3,2.3-0.5,3.5-0.5c2.1,0,3.9,0.3,5.5,1c1.5,0.6,2.8,1.5,3.8,2.7c1,1.1,1.7,2.5,2.2,4.2
	c0.5,1.6,0.7,3.4,0.7,5.3v19.8h-5.4V507c0-2.7-0.6-4.8-1.8-6.4c-1.2-1.6-3-2.3-5.6-2.3c-1.7,0-3.2,0.3-4.5,0.9
	c-1.3,0.6-2.3,1.4-3.1,2.5c-0.8,1.1-1.4,2.4-1.8,3.9c-0.4,1.5-0.6,3.2-0.6,5v15.6h-5.4V474.4z M648.5,477.7h5.4l20.7,48.6h-6.7
	l-4.9-11.9h-24.3l-5,11.9h-6.5L648.5,477.7z M651.1,485.1H651L640.9,509h19.8L651.1,485.1z M708.1,518.7c0,1.5,0,2.8,0.1,4.1
	c0.1,1.3,0.1,2.4,0.1,3.5h-5.1c0-0.9,0-1.7-0.1-2.6c0-0.9-0.1-1.8-0.1-2.7H703c-0.4,0.8-0.9,1.5-1.5,2.3c-0.7,0.7-1.5,1.4-2.4,2
	c-0.9,0.6-1.9,1-3.1,1.4c-1.1,0.3-2.4,0.5-3.7,0.5c-2.1,0-3.9-0.3-5.5-1c-1.5-0.6-2.8-1.5-3.8-2.7c-1-1.1-1.8-2.5-2.2-4.2
	s-0.7-3.4-0.7-5.3v-19.8h5.4v19.3c0,2.7,0.6,4.8,1.8,6.4c1.2,1.6,3,2.3,5.6,2.3c1.7,0,3.2-0.3,4.5-0.9c1.3-0.6,2.3-1.4,3.1-2.5
	c0.8-1.1,1.4-2.4,1.8-3.9c0.4-1.5,0.6-3.2,0.6-5v-15.6h5.4V518.7z M735.8,498.7h-9.5v16.1c0,1.1,0,2,0.1,2.9c0,0.9,0.2,1.7,0.5,2.3
	c0.3,0.7,0.8,1.2,1.4,1.6s1.6,0.6,2.7,0.6c0.8,0,1.6-0.1,2.4-0.3c0.8-0.2,1.6-0.5,2.3-0.8l0.2,4.9c-0.9,0.4-1.9,0.7-3.1,0.9
	c-1.1,0.2-2.2,0.3-3.2,0.3c-1.9,0-3.5-0.3-4.6-0.8c-1.1-0.5-2-1.2-2.7-2.1c-0.6-0.9-1.1-2-1.3-3.4c-0.2-1.3-0.3-2.8-0.3-4.5v-17.6
	h-7v-4.5h7v-9.1h5.4v9.1h9.5V498.7z M740.6,510.3c0-2.5,0.4-4.8,1.3-6.9c0.9-2.1,2.1-3.8,3.6-5.3c1.5-1.5,3.3-2.6,5.4-3.5
	c2.1-0.8,4.4-1.2,6.9-1.2c2.5,0,4.8,0.4,6.9,1.2c2.1,0.8,3.9,2,5.4,3.5c1.5,1.5,2.7,3.3,3.6,5.3c0.9,2.1,1.3,4.3,1.3,6.9
	c0,2.5-0.4,4.8-1.3,6.9c-0.9,2.1-2.1,3.8-3.6,5.3c-1.5,1.5-3.3,2.6-5.4,3.5c-2.1,0.8-4.4,1.2-6.9,1.2c-2.5,0-4.8-0.4-6.9-1.2
	c-2.1-0.8-3.9-2-5.4-3.5c-1.5-1.5-2.7-3.3-3.6-5.3C741,515.1,740.6,512.8,740.6,510.3z M746.3,510.3c0,1.7,0.3,3.3,0.8,4.7
	c0.5,1.4,1.3,2.7,2.3,3.8c1,1.1,2.2,1.9,3.6,2.5c1.4,0.6,3,0.9,4.7,0.9c1.7,0,3.3-0.3,4.7-0.9c1.4-0.6,2.6-1.5,3.6-2.5
	c1-1.1,1.8-2.3,2.3-3.8c0.5-1.4,0.8-3,0.8-4.7c0-1.7-0.3-3.3-0.8-4.7c-0.5-1.4-1.3-2.7-2.3-3.8c-1-1.1-2.2-1.9-3.6-2.5
	c-1.4-0.6-3-0.9-4.7-0.9c-1.7,0-3.3,0.3-4.7,0.9c-1.4,0.6-2.6,1.5-3.6,2.5c-1,1.1-1.8,2.3-2.3,3.8
	C746.6,507,746.3,508.6,746.3,510.3z M783.2,501.8c0-1.5,0-2.8-0.1-4.1c-0.1-1.3-0.1-2.4-0.1-3.5h5.1c0,0.9,0,1.7,0.1,2.6
	c0,0.9,0.1,1.8,0.1,2.7h0.1c0.4-0.8,0.9-1.5,1.5-2.3c0.7-0.7,1.5-1.4,2.4-2c0.9-0.6,1.9-1,3.1-1.4c1.1-0.3,2.4-0.5,3.7-0.5
	c1.7,0,3.2,0.2,4.4,0.7c1.2,0.4,2.1,1,2.9,1.6c0.8,0.6,1.4,1.3,1.8,2c0.4,0.7,0.8,1.3,1.1,1.9c1.2-1.9,2.6-3.4,4.1-4.5
	c1.6-1.1,3.6-1.6,6-1.6c2.3,0,4.2,0.3,5.8,0.9c1.6,0.6,2.8,1.5,3.8,2.7c1,1.2,1.6,2.6,2.1,4.3c0.4,1.7,0.6,3.5,0.6,5.6v19.5h-5.4
	v-19.2c0-1.1-0.1-2.2-0.3-3.2c-0.2-1.1-0.6-2-1.2-2.8c-0.6-0.8-1.4-1.5-2.4-2c-1-0.5-2.3-0.8-3.8-0.8c-1.1,0-2.2,0.2-3.2,0.7
	c-1,0.5-1.9,1.1-2.6,1.9c-0.8,0.8-1.3,1.8-1.8,3c-0.4,1.2-0.7,2.5-0.7,3.9v18.5h-5.4v-18.2c0-3.6-0.5-6.1-1.4-7.6
	c-1-1.5-2.5-2.2-4.7-2.2c-1.7,0-3.2,0.3-4.5,0.9c-1.3,0.6-2.3,1.4-3.1,2.5c-0.8,1.1-1.4,2.4-1.8,3.9c-0.4,1.5-0.6,3.2-0.6,5v15.6
	h-5.4V501.8z M841.2,498.3c1.6-1.7,3.6-2.9,5.9-3.7c2.3-0.8,4.6-1.2,6.9-1.2c4.8,0,8.2,1.1,10.3,3.4c2.1,2.2,3.2,5.7,3.2,10.2v13.8
	c0,0.9,0,1.9,0.1,2.8c0.1,1,0.2,1.9,0.3,2.7h-5.1c-0.2-0.7-0.3-1.5-0.3-2.4c0-0.9,0-1.7,0-2.4h-0.1c-1.1,1.7-2.5,3-4.2,4
	c-1.8,1.1-3.9,1.6-6.3,1.6c-1.7,0-3.2-0.2-4.6-0.6c-1.4-0.4-2.7-1-3.8-1.8c-1.1-0.8-1.9-1.8-2.6-3c-0.6-1.2-1-2.6-1-4.1
	c0-2.7,0.7-4.7,2.1-6.2c1.4-1.5,3.1-2.6,5.1-3.4c2-0.7,4.2-1.2,6.6-1.4c2.4-0.2,4.5-0.3,6.5-0.3h2.1v-1c0-2.3-0.7-4.1-2.1-5.3
	c-1.4-1.2-3.4-1.8-5.9-1.8c-1.7,0-3.4,0.3-5.1,0.9c-1.7,0.6-3.1,1.5-4.4,2.6L841.2,498.3z M856.7,510.9c-3.4,0-6.2,0.5-8.2,1.4
	c-2,1-3,2.5-3,4.7c0,2,0.7,3.4,2,4.3c1.3,0.8,3,1.3,5,1.3c1.6,0,2.9-0.3,4.1-0.8c1.2-0.5,2.1-1.2,2.9-2.1c0.8-0.9,1.4-1.9,1.8-3.1
	s0.6-2.4,0.7-3.7v-2.1H856.7z M894.8,498.7h-9.5v16.1c0,1.1,0,2,0.1,2.9c0,0.9,0.2,1.7,0.5,2.3c0.3,0.7,0.8,1.2,1.4,1.6
	c0.6,0.4,1.6,0.6,2.7,0.6c0.8,0,1.6-0.1,2.4-0.3c0.8-0.2,1.6-0.5,2.3-0.8l0.2,4.9c-0.9,0.4-1.9,0.7-3.1,0.9
	c-1.1,0.2-2.2,0.3-3.2,0.3c-1.9,0-3.5-0.3-4.6-0.8c-1.1-0.5-2-1.2-2.7-2.1c-0.6-0.9-1.1-2-1.3-3.4c-0.2-1.3-0.3-2.8-0.3-4.5v-17.6
	h-7v-4.5h7v-9.1h5.4v9.1h9.5V498.7z M900.7,481.7c0-1,0.4-2,1.1-2.7c0.8-0.8,1.7-1.2,2.8-1.2c1.1,0,2,0.4,2.8,1.2
	c0.8,0.8,1.1,1.7,1.1,2.7c0,1.1-0.4,2.1-1.1,2.8s-1.7,1.1-2.8,1.1c-1.1,0-2.1-0.4-2.8-1.1S900.7,482.8,900.7,481.7z M901.9,494.2
	h5.4v32.1h-5.4V494.2z M940.7,502.2c-1.1-1.4-2.4-2.4-3.7-3c-1.3-0.6-2.8-0.9-4.4-0.9c-1.8,0-3.4,0.3-4.7,0.9
	c-1.4,0.6-2.5,1.5-3.4,2.6c-0.9,1.1-1.6,2.4-2,3.8c-0.5,1.4-0.7,3-0.7,4.6s0.3,3.2,0.8,4.6c0.5,1.4,1.3,2.7,2.2,3.8
	c0.9,1.1,2.1,2,3.4,2.6c1.3,0.6,2.8,0.9,4.5,0.9c3.5,0,6.2-1.3,8.2-4l4,3.8c-1.6,1.8-3.4,3.1-5.5,3.9c-2.1,0.8-4.3,1.2-6.7,1.2
	c-2.5,0-4.7-0.4-6.8-1.2c-2.1-0.8-3.8-2-5.3-3.5c-1.4-1.5-2.6-3.3-3.4-5.4c-0.8-2.1-1.2-4.3-1.2-6.8c0-2.4,0.4-4.7,1.2-6.7
	c0.8-2.1,1.9-3.8,3.4-5.4c1.5-1.5,3.2-2.7,5.2-3.5c2-0.8,4.3-1.3,6.8-1.3c2.4,0,4.6,0.4,6.8,1.2c2.1,0.8,4,2.1,5.6,3.8L940.7,502.2z
	"/>
<path fill="#FFFFFF" d="M49,479.3c0-3.6,2.6-8.1,5.7-9.9l37.5-21.7c3.2-1.8,8.3-1.8,11.5,0l37.5,21.7c3.2,1.8,5.7,6.3,5.7,9.9v43.3
	c0,3.6-2.6,8.1-5.7,9.9l-37.5,21.7c-3.2,1.8-8.3,1.8-11.5,0l-37.5-21.7c-3.2-1.8-5.7-6.3-5.7-9.9V479.3z"/>
<path fill="#257FB9" d="M113.7,524.3l-3.1-6.3H85.5l-3.1,6.3h-15L92,474c1.4-2.8,3.5-4.1,6-4.1c2.5,0,4.7,1.5,6,4l24.6,50.3H113.7z
	 M104.8,506.1L98,492.2l-6.7,13.9H104.8z"/>
<path fill="#52B6ED" d="M118.2,518.1L98,477.2v11.3l11.5,23.6H80.9L98,477.2v-5.6c-2.2,0.2-3.4,1.3-4.5,3.2l-23.4,47.8h11.2
	l-3.4-4.4l3-6.2l3.5,4.4h27.2l3.1,6.2H126L118.2,518.1z"/>
</svg>
